<svg width="1404" height="1872" viewBox="0 0 1404 1872" fill="none" xmlns="http://www.w3.org/2000/svg">
<rect width="1404" height="1872" fill="#1E1E1E"/>
<g id="05-day" clip-path="url(#clip0_0_1)">
<path id="page-bg" d="M1404 0H0V1872H1404V0Z" fill="white"/>
<g id="background">
<g id="hdr-checks">
<path id="hdr-check-1" d="M697 39H684C681.239 39 679 41.2386 679 44V57C679 59.7614 681.239 62 684 62H697C699.761 62 702 59.7614 702 57V44C702 41.2386 699.761 39 697 39Z" stroke="#C4C1BB" stroke-width="1.5"/>
<path id="hdr-check-2" d="M697 74H684C681.239 74 679 76.2386 679 79V92C679 94.7614 681.239 97 684 97H697C699.761 97 702 94.7614 702 92V79C702 76.2386 699.761 74 697 74Z" stroke="#C4C1BB" stroke-width="1.5"/>
<path id="hdr-check-3" d="M697 109H684C681.239 109 679 111.239 679 114V127C679 129.761 681.239 132 684 132H697C699.761 132 702 129.761 702 127V114C702 111.239 699.761 109 697 109Z" stroke="#C4C1BB" stroke-width="1.5"/>
<path id="hdr-check-4" d="M697 144H684C681.239 144 679 146.239 679 149V162C679 164.761 681.239 167 684 167H697C699.761 167 702 164.761 702 162V149C702 146.239 699.761 144 697 144Z" stroke="#C4C1BB" stroke-width="1.5"/>
</g>
<path id="day-schedule-frame" d="M1346 178H136C133.791 178 132 179.791 132 182V1434C132 1436.21 133.791 1438 136 1438H1346C1348.21 1438 1350 1436.21 1350 1434V182C1350 179.791 1348.21 178 1346 178Z" stroke="#D7D4CF"/>
<g id="day-notes">
<path id="day-notes-frame" d="M769 1458H145C137.82 1458 132 1463.82 132 1471V1785C132 1792.18 137.82 1798 145 1798H769C776.18 1798 782 1792.18 782 1785V1471C782 1463.82 776.18 1458 769 1458Z" stroke="#C4C1BB"/>
<text id="day-notes-title" fill="#54492A" style="white-space: pre" xml:space="preserve" font-family="IBM Plex Mono" font-size="13" font-weight="bold" letter-spacing="0em"><tspan x="148" y="1484.38">NOTES</tspan></text>
</g>
<g id="day-mini-cal">
<path id="Vector" d="M808 1486H1350" stroke="#E2DFDA"/>
<text id="M" fill="#9AA0A8" style="white-space: pre" xml:space="preserve" font-family="IBM Plex Mono" font-size="11" letter-spacing="0em"><tspan x="843.917" y="1506.12">M</tspan></text>
<text id="T" fill="#9AA0A8" style="white-space: pre" xml:space="preserve" font-family="IBM Plex Mono" font-size="11" letter-spacing="0em"><tspan x="921.345" y="1506.12">T</tspan></text>
<text id="W" fill="#9AA0A8" style="white-space: pre" xml:space="preserve" font-family="IBM Plex Mono" font-size="11" letter-spacing="0em"><tspan x="998.773" y="1506.12">W</tspan></text>
<text id="T_2" fill="#9AA0A8" style="white-space: pre" xml:space="preserve" font-family="IBM Plex Mono" font-size="11" letter-spacing="0em"><tspan x="1076.2" y="1506.12">T</tspan></text>
<text id="F" fill="#9AA0A8" style="white-space: pre" xml:space="preserve" font-family="IBM Plex Mono" font-size="11" letter-spacing="0em"><tspan x="1153.63" y="1506.12">F</tspan></text>
<text id="S" fill="#9AA0A8" style="white-space: pre" xml:space="preserve" font-family="IBM Plex Mono" font-size="11" letter-spacing="0em"><tspan x="1231.06" y="1506.12">S</tspan></text>
<text id="S_2" fill="#9AA0A8" style="white-space: pre" xml:space="preserve" font-family="IBM Plex Mono" font-size="11" letter-spacing="0em"><tspan x="1308.49" y="1506.12">S</tspan></text>
<path id="day-mini-weekend-cols" d="M1350 1512H1195.14V1798H1350V1512Z" fill="#DDE0E5" fill-opacity="0.3"/>
</g>
<g id="footer-rule">
<path id="Vector_2" d="M132 1812H1350" stroke="#DCD9D4"/>
</g>
<g id="hdr-layout">
<path id="hdr-datebox-frame" d="M497.618 55H147.382C138.887 55 132 60.8203 132 68V140C132 147.18 138.887 153 147.382 153H497.618C506.113 153 513 147.18 513 140V68C513 60.8203 506.113 55 497.618 55Z" stroke="#CFD5DD"/>
<path id="Vector_3" d="M225.957 56V152" stroke="#E2DFDA"/>
<path id="Vector_4" d="M433 55V153" stroke="#E2DFDA"/>
<path id="Vector_5" d="M433 104H513" stroke="#E2DFDA"/>
</g>
<g id="rail">
<g id="rail-months-bg">
<rect id="rail-month-01-bg" x="25" y="148" width="66" height="108.417" fill="#D9D9D9"/>
<rect id="rail-month-02-bg" x="25" y="256.417" width="66" height="108.417" fill="#D9D9D9"/>
<rect id="rail-month-03-bg" x="25" y="364.833" width="66" height="108.417" fill="#D9D9D9"/>
<rect id="rail-month-04-bg" x="25" y="473.25" width="66" height="108.417" fill="#D9D9D9"/>
<rect id="rail-month-05-bg" x="25" y="581.667" width="66" height="108.417" fill="#D9D9D9"/>
<rect id="rail-month-06-bg" x="25" y="690.083" width="66" height="108.417" fill="#D9D9D9"/>
<rect id="rail-month-07-bg" x="25" y="798.5" width="66" height="108.417" fill="#D9D9D9"/>
<rect id="rail-month-08-bg" x="25" y="906.917" width="66" height="108.417" fill="#D9D9D9"/>
<rect id="rail-month-09-bg" x="25" y="1015.33" width="66" height="108.417" fill="#D9D9D9"/>
<rect id="rail-month-10-bg" x="25" y="1123.75" width="66" height="108.417" fill="#D9D9D9"/>
<rect id="rail-month-11-bg" x="25" y="1232.17" width="66" height="108.417" fill="#D9D9D9"/>
<rect id="rail-month-12-bg" x="25" y="1340.58" width="66" height="108.417" fill="#D9D9D9"/>
</g>
<g id="rail-months">
<text id="rail-month-01" transform="matrix(0 -1 1 0 25 256.417)" fill="#8F9298" style="white-space: pre" xml:space="preserve" font-family="IBM Plex Mono" font-size="16" letter-spacing="0em"><tspan x="39.8177" y="39">JAN</tspan></text>
<text id="rail-month-02" transform="matrix(0 -1 1 0 25 364.833)" fill="#8F9298" style="white-space: pre" xml:space="preserve" font-family="IBM Plex Mono" font-size="16" letter-spacing="0em"><tspan x="39.8177" y="39">FEB</tspan></text>
<text id="rail-month-03" transform="matrix(0 -1 1 0 25 473.25)" fill="#8F9298" style="white-space: pre" xml:space="preserve" font-family="IBM Plex Mono" font-size="16" letter-spacing="0em"><tspan x="39.8177" y="39">MAR</tspan></text>
<text id="rail-month-04" transform="matrix(0 -1 1 0 25 581.667)" fill="#8F9298" style="white-space: pre" xml:space="preserve" font-family="IBM Plex Mono" font-size="16" letter-spacing="0em"><tspan x="39.8177" y="39">APR</tspan></text>
<text id="rail-month-05" transform="matrix(0 -1 1 0 25 690.083)" fill="#8F9298" style="white-space: pre" xml:space="preserve" font-family="IBM Plex Mono" font-size="16" letter-spacing="0em"><tspan x="39.8177" y="39">MAY</tspan></text>
<text id="rail-month-06" transform="matrix(0 -1 1 0 25 798.5)" fill="#8F9298" style="white-space: pre" xml:space="preserve" font-family="IBM Plex Mono" font-size="16" letter-spacing="0em"><tspan x="39.8177" y="39">JUN</tspan></text>
<text id="rail-month-07" transform="matrix(0 -1 1 0 25 906.917)" fill="#8F9298" style="white-space: pre" xml:space="preserve" font-family="IBM Plex Mono" font-size="16" letter-spacing="0em"><tspan x="39.8177" y="39">JUL</tspan></text>
<text id="rail-month-08" transform="matrix(0 -1 1 0 25 1015.33)" fill="#8F9298" style="white-space: pre" xml:space="preserve" font-family="IBM Plex Mono" font-size="16" letter-spacing="0em"><tspan x="39.8177" y="39">AUG</tspan></text>
<text id="rail-month-09" transform="matrix(0 -1 1 0 25 1123.75)" fill="#8F9298" style="white-space: pre" xml:space="preserve" font-family="IBM Plex Mono" font-size="16" letter-spacing="0em"><tspan x="39.8177" y="39">SEP</tspan></text>
<text id="rail-month-10" transform="matrix(0 -1 1 0 25 1232.17)" fill="#8F9298" style="white-space: pre" xml:space="preserve" font-family="IBM Plex Mono" font-size="16" letter-spacing="0em"><tspan x="39.8177" y="39">OCT</tspan></text>
<text id="rail-month-11" transform="matrix(0 -1 1 0 25 1340.58)" fill="#8F9298" style="white-space: pre" xml:space="preserve" font-family="IBM Plex Mono" font-size="16" letter-spacing="0em"><tspan x="39.8177" y="39">NOV</tspan></text>
<text id="rail-month-12" transform="matrix(0 -1 1 0 25 1449)" fill="#8F9298" style="white-space: pre" xml:space="preserve" font-family="IBM Plex Mono" font-size="16" letter-spacing="0em"><tspan x="39.8177" y="39">DEC</tspan></text>
</g>
<g id="rail-index-chip">
<g id="Vector_6">
<path d="M25 148L58 160.5V54H37.5C31 54 25 59.5 25 67V148Z" fill="#2C2C2C"/>
<path d="M91 148L58 160.5V54H78.5C85 54 91 59.5 91 67V148Z" fill="#2C2C2C"/>
</g>
<text id="rail-index-label" transform="matrix(0 -1 1 0 44.9048 127.388)" fill="white" style="white-space: pre" xml:space="preserve" font-family="Noto Sans" font-size="16" font-weight="bold" letter-spacing="0em"><tspan x="0.842468" y="18.7794">INDEX</tspan></text>
</g>
<path id="Vector_7" d="M25 1449H91" stroke="#E2DFDA"/>
<g id="rail-sections-bg">
<rect id="rail-section-4-bg" opacity="0.2" x="25" y="1740" width="66" height="97" fill="#D9D9D9"/>
<rect id="rail-section-3-bg" opacity="0.2" x="25" y="1643" width="66" height="97" fill="#D9D9D9"/>
<rect id="rail-section-2-bg" opacity="0.2" x="25" y="1546" width="66" height="97" fill="#D9D9D9"/>
<rect id="rail-section-1-bg" opacity="0.2" x="25" y="1449" width="66" height="97" fill="#D9D9D9"/>
</g>
<g id="rail-sections">
<text id="rail-section-1" transform="matrix(0 -1 1 0 25 1546)" fill="#8F9298" style="white-space: pre" xml:space="preserve" font-family="Noto Sans" font-size="12" font-weight="bold" letter-spacing="0em"><tspan x="32.6914" y="37.656">LISTS</tspan></text>
<text id="rail-section-2" transform="matrix(0 -1 1 0 25 1643)" fill="#8F9298" style="white-space: pre" xml:space="preserve" font-family="Noto Sans" font-size="12" font-weight="bold" letter-spacing="0em"><tspan x="20.0527" y="37.656">PROJECTS</tspan></text>
<text id="rail-section-3" transform="matrix(0 -1 1 0 25 1740)" fill="#8F9298" style="white-space: pre" xml:space="preserve" font-family="Noto Sans" font-size="12" font-weight="bold" letter-spacing="0em"><tspan x="17.791" y="37.656">MEETINGS</tspan></text>
<text id="rail-section-4" transform="matrix(0 -1 1 0 25 1837)" fill="#8F9298" style="white-space: pre" xml:space="preserve" font-family="Noto Sans" font-size="12" font-weight="bold" letter-spacing="0em"><tspan x="9.875" y="37.656">SCRATCHPAD</tspan></text>
</g>
</g>
</g>
<g id="var-ink">
<g id="hdr-nav">
<path id="hdr-nav-prev-bg" d="M586 86H568C563.582 86 560 89.5817 560 94V112C560 116.418 563.582 120 568 120H586C590.418 120 594 116.418 594 112V94C594 89.5817 590.418 86 586 86Z" stroke="#D6E0EE"/>
<text id="&#226;&#128;&#185;" fill="#41587C" style="white-space: pre" xml:space="preserve" font-family="Noto Sans" font-size="16" letter-spacing="0em"><tspan x="574.133" y="108.424">&#x2039;</tspan></text>
<path id="hdr-nav-next-bg" d="M630 86H612C607.582 86 604 89.5817 604 94V112C604 116.418 607.582 120 612 120H630C634.418 120 638 116.418 638 112V94C638 89.5817 634.418 86 630 86Z" stroke="#D6E0EE"/>
<text id="&#226;&#128;&#186;" fill="#41587C" style="white-space: pre" xml:space="preserve" font-family="Noto Sans" font-size="16" letter-spacing="0em"><tspan x="618.133" y="108.424">&#x203a;</tspan></text>
</g>
<text id="hdr-right-weekday" fill="#9E5563" style="white-space: pre" xml:space="preserve" font-family="IBM Plex Mono" font-size="52" letter-spacing="0em"><tspan x="1110.92" y="122.5">MON &#xb7; &#x6708;</tspan></text>
<g id="day-mini-var">
<text id="day-mini-month" fill="#41587C" style="white-space: pre" xml:space="preserve" font-family="IBM Plex Mono" font-size="15" font-weight="bold" letter-spacing="0em"><tspan x="808" y="1474.62">February</tspan></text>
<text id="day-mini-year" fill="#9AA0A8" style="white-space: pre" xml:space="preserve" font-family="IBM Plex Mono" font-size="13" letter-spacing="0em"><tspan x="920" y="1474.38">2026</tspan></text>
<g id="day-mini-days">
<text id="day-mini-r1c1" fill="#23262D" style="white-space: pre" xml:space="preserve" font-family="IBM Plex Mono" font-size="15" letter-spacing="0em"><tspan x="839.146" y="1539.62">.</tspan></text>
<text id="day-mini-r1c2" fill="#23262D" style="white-space: pre" xml:space="preserve" font-family="IBM Plex Mono" font-size="15" letter-spacing="0em"><tspan x="917.431" y="1539.62">.</tspan></text>
<text id="day-mini-r1c3" fill="#23262D" style="white-space: pre" xml:space="preserve" font-family="IBM Plex Mono" font-size="15" letter-spacing="0em"><tspan x="995.717" y="1539.62">.</tspan></text>
<text id="day-mini-r1c4" fill="#23262D" style="white-space: pre" xml:space="preserve" font-family="IBM Plex Mono" font-size="15" letter-spacing="0em"><tspan x="1074" y="1539.62">.</tspan></text>
<text id="day-mini-r1c5" fill="#23262D" style="white-space: pre" xml:space="preserve" font-family="IBM Plex Mono" font-size="15" letter-spacing="0em"><tspan x="1152.29" y="1539.62">.</tspan></text>
<text id="day-mini-r1c6" fill="#23262D" style="white-space: pre" xml:space="preserve" font-family="IBM Plex Mono" font-size="15" letter-spacing="0em"><tspan x="1230.57" y="1539.62">.</tspan></text>
<text id="day-mini-r1c7" fill="#9E5563" style="white-space: pre" xml:space="preserve" font-family="IBM Plex Mono" font-size="15" letter-spacing="0em"><tspan x="1308.86" y="1539.62">1</tspan></text>
<text id="day-mini-r2c1" fill="#23262D" style="white-space: pre" xml:space="preserve" font-family="IBM Plex Mono" font-size="15" letter-spacing="0em"><tspan x="839.146" y="1585.79">2</tspan></text>
<text id="day-mini-r2c2" fill="#23262D" style="white-space: pre" xml:space="preserve" font-family="IBM Plex Mono" font-size="15" letter-spacing="0em"><tspan x="917.431" y="1585.79">3</tspan></text>
<text id="day-mini-r2c3" fill="#23262D" style="white-space: pre" xml:space="preserve" font-family="IBM Plex Mono" font-size="15" letter-spacing="0em"><tspan x="995.717" y="1585.79">4</tspan></text>
<text id="day-mini-r2c4" fill="#23262D" style="white-space: pre" xml:space="preserve" font-family="IBM Plex Mono" font-size="15" letter-spacing="0em"><tspan x="1074" y="1585.79">5</tspan></text>
<text id="day-mini-r2c5" fill="#23262D" style="white-space: pre" xml:space="preserve" font-family="IBM Plex Mono" font-size="15" letter-spacing="0em"><tspan x="1152.29" y="1585.79">6</tspan></text>
<text id="day-mini-r2c6" fill="#23262D" style="white-space: pre" xml:space="preserve" font-family="IBM Plex Mono" font-size="15" letter-spacing="0em"><tspan x="1230.57" y="1585.79">7</tspan></text>
<text id="day-mini-r2c7" fill="#9E5563" style="white-space: pre" xml:space="preserve" font-family="IBM Plex Mono" font-size="15" letter-spacing="0em"><tspan x="1308.86" y="1585.79">8</tspan></text>
<text id="day-mini-r3c1" fill="#23262D" style="white-space: pre" xml:space="preserve" font-family="IBM Plex Mono" font-size="15" letter-spacing="0em"><tspan x="839.146" y="1631.96">9</tspan></text>
<text id="day-mini-r3c2" fill="#23262D" style="white-space: pre" xml:space="preserve" font-family="IBM Plex Mono" font-size="15" letter-spacing="0em"><tspan x="912.934" y="1631.96">10</tspan></text>
<text id="day-mini-r3c3" fill="#23262D" style="white-space: pre" xml:space="preserve" font-family="IBM Plex Mono" font-size="15" letter-spacing="0em"><tspan x="991.22" y="1631.96">11</tspan></text>
<text id="day-mini-r3c4" fill="#23262D" style="white-space: pre" xml:space="preserve" font-family="IBM Plex Mono" font-size="15" letter-spacing="0em"><tspan x="1069.51" y="1631.96">12</tspan></text>
<text id="day-mini-r3c5" fill="#23262D" style="white-space: pre" xml:space="preserve" font-family="IBM Plex Mono" font-size="15" letter-spacing="0em"><tspan x="1147.79" y="1631.96">13</tspan></text>
<text id="day-mini-r3c6" fill="#23262D" style="white-space: pre" xml:space="preserve" font-family="IBM Plex Mono" font-size="15" letter-spacing="0em"><tspan x="1226.08" y="1631.96">14</tspan></text>
<text id="day-mini-r3c7" fill="#9E5563" style="white-space: pre" xml:space="preserve" font-family="IBM Plex Mono" font-size="15" letter-spacing="0em"><tspan x="1304.36" y="1631.96">15</tspan></text>
<text id="day-mini-r4c1" fill="black" style="white-space: pre" xml:space="preserve" font-family="IBM Plex Mono" font-size="15" letter-spacing="0em"><tspan x="839.146" y="1678.12">6</tspan></text>
<text id="day-mini-r4c2" fill="#23262D" style="white-space: pre" xml:space="preserve" font-family="IBM Plex Mono" font-size="15" letter-spacing="0em"><tspan x="912.934" y="1678.12">17</tspan></text>
<text id="day-mini-r4c3" fill="#23262D" style="white-space: pre" xml:space="preserve" font-family="IBM Plex Mono" font-size="15" letter-spacing="0em"><tspan x="991.22" y="1678.12">18</tspan></text>
<text id="day-mini-r4c4" fill="#23262D" style="white-space: pre" xml:space="preserve" font-family="IBM Plex Mono" font-size="15" letter-spacing="0em"><tspan x="1069.51" y="1678.12">19</tspan></text>
<text id="day-mini-r4c5" fill="#23262D" style="white-space: pre" xml:space="preserve" font-family="IBM Plex Mono" font-size="15" letter-spacing="0em"><tspan x="1147.79" y="1678.12">20</tspan></text>
<text id="day-mini-r4c6" fill="#23262D" style="white-space: pre" xml:space="preserve" font-family="IBM Plex Mono" font-size="15" letter-spacing="0em"><tspan x="1226.08" y="1678.12">21</tspan></text>
<text id="day-mini-r4c7" fill="#9E5563" style="white-space: pre" xml:space="preserve" font-family="IBM Plex Mono" font-size="15" letter-spacing="0em"><tspan x="1304.36" y="1678.12">22</tspan></text>
<text id="day-mini-r5c1" fill="#23262D" style="white-space: pre" xml:space="preserve" font-family="IBM Plex Mono" font-size="15" letter-spacing="0em"><tspan x="834.649" y="1724.29">23</tspan></text>
<text id="day-mini-r5c2" fill="#23262D" style="white-space: pre" xml:space="preserve" font-family="IBM Plex Mono" font-size="15" letter-spacing="0em"><tspan x="912.934" y="1724.29">24</tspan></text>
<text id="day-mini-r5c3" fill="#23262D" style="white-space: pre" xml:space="preserve" font-family="IBM Plex Mono" font-size="15" letter-spacing="0em"><tspan x="991.22" y="1724.29">25</tspan></text>
<text id="day-mini-r5c4" fill="#23262D" style="white-space: pre" xml:space="preserve" font-family="IBM Plex Mono" font-size="15" letter-spacing="0em"><tspan x="1069.51" y="1724.29">26</tspan></text>
<text id="day-mini-r5c5" fill="#23262D" style="white-space: pre" xml:space="preserve" font-family="IBM Plex Mono" font-size="15" letter-spacing="0em"><tspan x="1147.79" y="1724.29">27</tspan></text>
<text id="day-mini-r5c6" fill="#23262D" style="white-space: pre" xml:space="preserve" font-family="IBM Plex Mono" font-size="15" letter-spacing="0em"><tspan x="1226.08" y="1724.29">28</tspan></text>
<text id="day-mini-r5c7" fill="#23262D" style="white-space: pre" xml:space="preserve" font-family="IBM Plex Mono" font-size="15" letter-spacing="0em"><tspan x="1308.86" y="1724.29">.</tspan></text>
<text id="day-mini-r6c1" fill="#23262D" style="white-space: pre" xml:space="preserve" font-family="IBM Plex Mono" font-size="15" letter-spacing="0em"><tspan x="839.146" y="1770.46">.</tspan></text>
<text id="day-mini-r6c2" fill="#23262D" style="white-space: pre" xml:space="preserve" font-family="IBM Plex Mono" font-size="15" letter-spacing="0em"><tspan x="917.431" y="1770.46">.</tspan></text>
<text id="day-mini-r6c3" fill="#23262D" style="white-space: pre" xml:space="preserve" font-family="IBM Plex Mono" font-size="15" letter-spacing="0em"><tspan x="995.717" y="1770.46">.</tspan></text>
<text id="day-mini-r6c4" fill="#23262D" style="white-space: pre" xml:space="preserve" font-family="IBM Plex Mono" font-size="15" letter-spacing="0em"><tspan x="1074" y="1770.46">.</tspan></text>
<text id="day-mini-r6c5" fill="#23262D" style="white-space: pre" xml:space="preserve" font-family="IBM Plex Mono" font-size="15" letter-spacing="0em"><tspan x="1152.29" y="1770.46">.</tspan></text>
<text id="day-mini-r6c6" fill="#23262D" style="white-space: pre" xml:space="preserve" font-family="IBM Plex Mono" font-size="15" letter-spacing="0em"><tspan x="1230.57" y="1770.46">.</tspan></text>
<text id="day-mini-r6c7" fill="#23262D" style="white-space: pre" xml:space="preserve" font-family="IBM Plex Mono" font-size="15" letter-spacing="0em"><tspan x="1308.86" y="1770.46">.</tspan></text>
</g>
</g>
<text id="footer-left" fill="#9AA0A8" style="white-space: pre" xml:space="preserve" font-family="Noto Sans" font-size="13" letter-spacing="0em"><tspan x="132" y="1837.04">2&#x6708; 16, 2026</tspan></text>
<text id="footer-right" fill="#9AA0A8" style="white-space: pre" xml:space="preserve" font-family="Noto Sans" font-size="13" letter-spacing="0em"><tspan x="1307.34" y="1837.04">&#x21b3; week</tspan></text>
<g id="hdr-meta">
<text id="hdr-big-label" fill="#8F9298" style="white-space: pre" xml:space="preserve" font-family="IBM Plex Mono" font-size="13" letter-spacing="0em"><tspan x="159.513" y="129.375">MONTH</tspan></text>
<text id="hdr-meta-top" fill="#6B7686" style="white-space: pre" xml:space="preserve" font-family="IBM Plex Mono" font-size="13" letter-spacing="0em"><tspan x="457.638" y="88.875">YEAR</tspan></text>
<text id="hdr-month-name" fill="#41587C" style="white-space: pre" xml:space="preserve" font-family="IBM Plex Mono" font-size="23" font-weight="bold" letter-spacing="0em"><tspan x="274.16" y="109.625">February</tspan></text>
<text id="hdr-month-jp" fill="#9AA0A8" style="white-space: pre" xml:space="preserve" font-family="Noto Sans" font-size="16" letter-spacing="0em"><tspan x="310.822" y="137.208">2&#x6708;</tspan></text>
<text id="hdr-meta-bottom" fill="#41587C" style="white-space: pre" xml:space="preserve" font-family="IBM Plex Mono" font-size="15" letter-spacing="0em"><tspan x="455.012" y="139.125">2026</tspan></text>
<text id="hdr-big" fill="#23262D" style="white-space: pre" xml:space="preserve" font-family="IBM Plex Mono" font-size="52" letter-spacing="0em"><tspan x="163.41" y="108.5">2</tspan></text>
</g>
</g>
</g>
<defs>
<clipPath id="clip0_0_1">
<rect width="1404" height="1872" fill="white"/>
</clipPath>
</defs>
</svg>
