<svg width="1404" height="1872" viewBox="0 0 1404 1872" fill="none" xmlns="http://www.w3.org/2000/svg">
<rect width="1404" height="1872" fill="#1E1E1E"/>
<g id="05-day" clip-path="url(#clip0_0_1)">
<path id="page-bg" d="M1404 0H0V1872H1404V0Z" fill="white"/>
<g id="background">
<g id="hdr-checks">
<path id="hdr-check-1" d="M697 56.5H684C681.239 56.5 679 58.7386 679 61.5V74.5C679 77.2614 681.239 79.5 684 79.5H697C699.761 79.5 702 77.2614 702 74.5V61.5C702 58.7386 699.761 56.5 697 56.5Z" stroke="#B8B8B8" stroke-width="1.5"/>
<path id="hdr-check-2" d="M697 91.5H684C681.239 91.5 679 93.7386 679 96.5V109.5C679 112.261 681.239 114.5 684 114.5H697C699.761 114.5 702 112.261 702 109.5V96.5C702 93.7386 699.761 91.5 697 91.5Z" stroke="#B8B8B8" stroke-width="1.5"/>
<path id="hdr-check-3" d="M697 126.5H684C681.239 126.5 679 128.739 679 131.5V144.5C679 147.261 681.239 149.5 684 149.5H697C699.761 149.5 702 147.261 702 144.5V131.5C702 128.739 699.761 126.5 697 126.5Z" stroke="#B8B8B8" stroke-width="1.5"/>
</g>
<rect id="day-schedule-frame" x="132.5" y="178.5" width="1217" height="1259" rx="15.5" stroke="#B8B8B8"/>
<g id="day-notes">
<path id="day-notes-frame" d="M769 1458H145C137.82 1458 132 1463.82 132 1471V1785C132 1792.18 137.82 1798 145 1798H769C776.18 1798 782 1792.18 782 1785V1471C782 1463.82 776.18 1458 769 1458Z" stroke="#B8B8B8"/>
<text id="day-notes-title" fill="#4D4D4D" style="white-space: pre" xml:space="preserve" font-family="Inter" font-size="18" font-weight="bold" letter-spacing="-0.01em"><tspan x="148" y="1497.55">NOTES</tspan></text>
</g>
<g id="day-mini-cal">
<path id="Vector" d="M808 1486H1350" stroke="#B8B8B8"/>
<g id="day-mini-cal-D">
<text id="M" fill="#4D4D4D" style="white-space: pre" xml:space="preserve" font-family="Inter" font-size="14" font-weight="500" letter-spacing="-0.01em"><tspan x="840.218" y="1507.09">M</tspan></text>
<text id="T" fill="#4D4D4D" style="white-space: pre" xml:space="preserve" font-family="Inter" font-size="14" font-weight="500" letter-spacing="-0.01em"><tspan x="920.155" y="1507.09">T</tspan></text>
<text id="W" fill="#4D4D4D" style="white-space: pre" xml:space="preserve" font-family="Inter" font-size="14" font-weight="500" letter-spacing="-0.01em"><tspan x="999.586" y="1507.09">W</tspan></text>
<text id="T_2" fill="#4D4D4D" style="white-space: pre" xml:space="preserve" font-family="Inter" font-size="14" font-weight="500" letter-spacing="-0.01em"><tspan x="1079.58" y="1507.09">T</tspan></text>
<text id="F" fill="#4D4D4D" style="white-space: pre" xml:space="preserve" font-family="Inter" font-size="14" font-weight="500" letter-spacing="-0.01em"><tspan x="1159.26" y="1507.09">F</tspan></text>
<text id="S" fill="#4D4D4D" style="white-space: pre" xml:space="preserve" font-family="Inter" font-size="14" font-weight="500" letter-spacing="-0.01em"><tspan x="1239.07" y="1507.09">S</tspan></text>
<text id="S_2" fill="#4D4D4D" style="white-space: pre" xml:space="preserve" font-family="Inter" font-size="14" font-weight="500" letter-spacing="-0.01em"><tspan x="1318.78" y="1507.09">S</tspan></text>
</g>
<path id="day-mini-weekend-cols" d="M1350 1512H1195.14V1798H1350V1512Z" fill="#F2F2F2"/>
</g>
<g id="footer-rule">
<path id="Vector_2" d="M132 1812H1350" stroke="#808080"/>
</g>
<g id="hdr-layout">
<path id="Vector_3" d="M261.468 56V152" stroke="#B8B8B8"/>
<path id="Vector_4" d="M546.764 55V153" stroke="#B8B8B8"/>
<path id="Vector_5" d="M546.764 104H657" stroke="#B8B8B8"/>
<rect id="hdr-datebox-frame" x="132.5" y="55.5" width="524" height="97" rx="7.5" stroke="#B8B8B8"/>
</g>
<g id="rail">
<g id="rail-months-bg">
<rect id="rail-month-01-bg" x="25" y="187" width="66" height="98.75" fill="#DCDCDC"/>
<rect id="rail-month-02-bg" x="25" y="285.75" width="66" height="98.75" fill="#DCDCDC"/>
<rect id="rail-month-03-bg" x="25" y="384.5" width="66" height="98.75" fill="#DCDCDC"/>
<rect id="rail-month-04-bg" x="25" y="483.25" width="66" height="98.75" fill="#DCDCDC"/>
<rect id="rail-month-05-bg" x="25" y="582" width="66" height="98.75" fill="#DCDCDC"/>
<rect id="rail-month-06-bg" x="25" y="680.75" width="66" height="98.75" fill="#DCDCDC"/>
<rect id="rail-month-07-bg" x="25" y="779.5" width="66" height="98.75" fill="#DCDCDC"/>
<rect id="rail-month-08-bg" x="25" y="878.25" width="66" height="98.75" fill="#DCDCDC"/>
<rect id="rail-month-09-bg" x="25" y="977" width="66" height="98.75" fill="#DCDCDC"/>
<rect id="rail-month-10-bg" x="25" y="1075.75" width="66" height="98.75" fill="#DCDCDC"/>
<rect id="rail-month-11-bg" x="25" y="1174.5" width="66" height="98.75" fill="#DCDCDC"/>
<rect id="rail-month-12-bg" x="25" y="1273.25" width="66" height="98.75" fill="#DCDCDC"/>
</g>
<g id="rail-months">
<text id="rail-month-01" transform="matrix(0 -1 1 0 25 286.667)" fill="#4D4D4D" style="white-space: pre" xml:space="preserve" font-family="Inter" font-size="18" font-weight="600" letter-spacing="-0.01em"><tspan x="31.2848" y="39.5455">JAN</tspan></text>
<text id="rail-month-02" transform="matrix(0 -1 1 0 25 385.333)" fill="#4D4D4D" style="white-space: pre" xml:space="preserve" font-family="Inter" font-size="18" font-weight="600" letter-spacing="-0.01em"><tspan x="32.8581" y="39.5455">FEB</tspan></text>
<text id="rail-month-03" transform="matrix(0 -1 1 0 25 484)" fill="#4D4D4D" style="white-space: pre" xml:space="preserve" font-family="Inter" font-size="18" font-weight="600" letter-spacing="-0.01em"><tspan x="28.9909" y="39.5455">MAR</tspan></text>
<text id="rail-month-04" transform="matrix(0 -1 1 0 25 582.667)" fill="#4D4D4D" style="white-space: pre" xml:space="preserve" font-family="Inter" font-size="18" font-weight="600" letter-spacing="-0.01em"><tspan x="31.3551" y="39.5455">APR</tspan></text>
<text id="rail-month-05" transform="matrix(0 -1 1 0 25 681.333)" fill="#4D4D4D" style="white-space: pre" xml:space="preserve" font-family="Inter" font-size="18" font-weight="600" letter-spacing="-0.01em"><tspan x="29.1754" y="39.5455">MAY</tspan></text>
<text id="rail-month-06" transform="matrix(0 -1 1 0 25 780)" fill="#4D4D4D" style="white-space: pre" xml:space="preserve" font-family="Inter" font-size="18" font-weight="600" letter-spacing="-0.01em"><tspan x="31.1969" y="39.5455">JUN</tspan></text>
<text id="rail-month-07" transform="matrix(0 -1 1 0 25 878.667)" fill="#4D4D4D" style="white-space: pre" xml:space="preserve" font-family="Inter" font-size="18" font-weight="600" letter-spacing="-0.01em"><tspan x="32.7702" y="39.5455">JUL</tspan></text>
<text id="rail-month-08" transform="matrix(0 -1 1 0 25 977.333)" fill="#4D4D4D" style="white-space: pre" xml:space="preserve" font-family="Inter" font-size="18" font-weight="600" letter-spacing="-0.01em"><tspan x="29.6061" y="39.5455">AUG</tspan></text>
<text id="rail-month-09" transform="matrix(0 -1 1 0 25 1076)" fill="#4D4D4D" style="white-space: pre" xml:space="preserve" font-family="Inter" font-size="18" font-weight="600" letter-spacing="-0.01em"><tspan x="32.4098" y="39.5455">SEP</tspan></text>
<text id="rail-month-10" transform="matrix(0 -1 1 0 25 1174.67)" fill="#4D4D4D" style="white-space: pre" xml:space="preserve" font-family="Inter" font-size="18" font-weight="600" letter-spacing="-0.01em"><tspan x="29.9137" y="39.5455">OCT</tspan></text>
<text id="rail-month-11" transform="matrix(0 -1 1 0 25 1273.33)" fill="#4D4D4D" style="white-space: pre" xml:space="preserve" font-family="Inter" font-size="18" font-weight="600" letter-spacing="-0.01em"><tspan x="29.7116" y="39.5455">NOV</tspan></text>
<text id="rail-month-12" transform="matrix(0 -1 1 0 25 1372)" fill="#4D4D4D" style="white-space: pre" xml:space="preserve" font-family="Inter" font-size="18" font-weight="600" letter-spacing="-0.01em"><tspan x="30.8366" y="39.5455">DEC</tspan></text>
</g>
<path id="Vector_6" d="M25 1372H91" stroke="#B8B8B8"/>
<g id="rail-sections-bg">
<rect id="rail-section-4-bg" opacity="0.2" x="25" y="1720.75" width="66" height="116.25" fill="#DCDCDC"/>
<rect id="rail-section-3-bg" opacity="0.2" x="25" y="1604.5" width="66" height="116.25" fill="#DCDCDC"/>
<rect id="rail-section-2-bg" opacity="0.2" x="25" y="1488.25" width="66" height="116.25" fill="#DCDCDC"/>
<rect id="rail-section-1-bg" opacity="0.2" x="25" y="1372" width="66" height="116.25" fill="#DCDCDC"/>
</g>
<g id="rail-sections">
<text id="rail-section-1" transform="matrix(0 -1 1 0 25 1488.25)" fill="#4D4D4D" style="white-space: pre" xml:space="preserve" font-family="Inter" font-size="16" letter-spacing="-0.01em"><tspan x="36.4919" y="38.8182">LISTS</tspan></text>
<text id="rail-section-2" transform="matrix(0 -1 1 0 25 1604.5)" fill="#4D4D4D" style="white-space: pre" xml:space="preserve" font-family="Inter" font-size="16" letter-spacing="-0.01em"><tspan x="17.2163" y="38.8182">PROJECTS</tspan></text>
<text id="rail-section-3" transform="matrix(0 -1 1 0 25 1720.75)" fill="#4D4D4D" style="white-space: pre" xml:space="preserve" font-family="Inter" font-size="16" letter-spacing="-0.01em"><tspan x="17.685" y="38.8182">MEETINGS</tspan></text>
<text id="rail-section-4" transform="matrix(0 -1 1 0 25 1837)" fill="#4D4D4D" style="white-space: pre" xml:space="preserve" font-family="Inter" font-size="16" letter-spacing="-0.01em"><tspan x="21.2066" y="38.8182">SCRATCH</tspan></text>
</g>
<g id="rail-index-chip">
<path id="Vector_7" d="M58 199.5L25 187V106C25 98.5 31 93 37.5 93H58H78.5C85 93 91 98.5 91 106V187L58 199.5Z" fill="black"/>
<text id="rail-index-label" transform="matrix(0 -1 1 0 45 199)" fill="white" style="white-space: pre" xml:space="preserve" font-family="Inter" font-size="18" font-weight="600" letter-spacing="-0.01em"><tspan x="26.0172" y="19.0455">INDEX</tspan></text>
</g>
</g>
</g>
<g id="var-ink">
<text id="hdr-right-weekday" fill="#B8B8B8" style="white-space: pre" xml:space="preserve" font-family="Noto Sans" font-size="64" font-weight="bold" letter-spacing="-0.02em"><tspan x="1078.8" y="121.832">MON &#xb7; &#x6708;</tspan></text>
<g id="day-mini-var">
<text id="day-mini-month" fill="black" style="white-space: pre" xml:space="preserve" font-family="EB Garamond" font-size="24" font-weight="600" letter-spacing="-0.01em"><tspan x="808" y="1479.51">February</tspan></text>
<text id="day-mini-year" fill="#4D4D4D" style="white-space: pre" xml:space="preserve" font-family="Inter" font-size="18" font-weight="600" letter-spacing="-0.01em"><tspan x="1304" y="1479.55">2026</tspan></text>
<g id="day-mini-days">
<text id="day-mini-r1c1" fill="#4D4D4D" style="white-space: pre" xml:space="preserve" font-family="Inter" font-size="16" letter-spacing="-0.01em"><tspan x="844.308" y="1551.4">.</tspan></text>
<text id="day-mini-r1c2" fill="#4D4D4D" style="white-space: pre" xml:space="preserve" font-family="Inter" font-size="16" letter-spacing="-0.01em"><tspan x="924.022" y="1551.4">.</tspan></text>
<text id="day-mini-r1c3" fill="#4D4D4D" style="white-space: pre" xml:space="preserve" font-family="Inter" font-size="16" letter-spacing="-0.01em"><tspan x="1003.74" y="1551.4">.</tspan></text>
<text id="day-mini-r1c4" fill="#4D4D4D" style="white-space: pre" xml:space="preserve" font-family="Inter" font-size="16" letter-spacing="-0.01em"><tspan x="1083.45" y="1551.4">.</tspan></text>
<text id="day-mini-r1c5" fill="#4D4D4D" style="white-space: pre" xml:space="preserve" font-family="Inter" font-size="16" letter-spacing="-0.01em"><tspan x="1163.16" y="1551.4">.</tspan></text>
<text id="day-mini-r1c6" fill="#4D4D4D" style="white-space: pre" xml:space="preserve" font-family="Inter" font-size="16" letter-spacing="-0.01em"><tspan x="1242.88" y="1551.4">.</tspan></text>
<text id="day-mini-r1c7" fill="#4D4D4D" style="white-space: pre" xml:space="preserve" font-family="Inter" font-size="16" letter-spacing="-0.01em"><tspan x="1319.56" y="1551.4">1</tspan></text>
<text id="day-mini-r2c1" fill="#4D4D4D" style="white-space: pre" xml:space="preserve" font-family="Inter" font-size="16" letter-spacing="-0.01em"><tspan x="839.027" y="1594.57">2</tspan></text>
<text id="day-mini-r2c2" fill="#4D4D4D" style="white-space: pre" xml:space="preserve" font-family="Inter" font-size="16" letter-spacing="-0.01em"><tspan x="918.241" y="1594.57">3</tspan></text>
<text id="day-mini-r2c3" fill="#4D4D4D" style="white-space: pre" xml:space="preserve" font-family="Inter" font-size="16" letter-spacing="-0.01em"><tspan x="997.877" y="1594.57">4</tspan></text>
<text id="day-mini-r2c4" fill="#4D4D4D" style="white-space: pre" xml:space="preserve" font-family="Inter" font-size="16" letter-spacing="-0.01em"><tspan x="1078.12" y="1594.57">5</tspan></text>
<text id="day-mini-r2c5" fill="#4D4D4D" style="white-space: pre" xml:space="preserve" font-family="Inter" font-size="16" letter-spacing="-0.01em"><tspan x="1157.59" y="1594.57">6</tspan></text>
<text id="day-mini-r2c6" fill="#4D4D4D" style="white-space: pre" xml:space="preserve" font-family="Inter" font-size="16" letter-spacing="-0.01em"><tspan x="1238.14" y="1594.57">7</tspan></text>
<text id="day-mini-r2c7" fill="#4D4D4D" style="white-space: pre" xml:space="preserve" font-family="Inter" font-size="16" letter-spacing="-0.01em"><tspan x="1317.14" y="1594.57">8</tspan></text>
<text id="day-mini-r3c1" fill="#4D4D4D" style="white-space: pre" xml:space="preserve" font-family="Inter" font-size="16" letter-spacing="-0.01em"><tspan x="838.73" y="1637.73">9</tspan></text>
<text id="day-mini-r3c2" fill="#4D4D4D" style="white-space: pre" xml:space="preserve" font-family="Inter" font-size="16" letter-spacing="-0.01em"><tspan x="911.151" y="1637.73">10</tspan></text>
<text id="day-mini-r3c3" fill="#4D4D4D" style="white-space: pre" xml:space="preserve" font-family="Inter" font-size="16" letter-spacing="-0.01em"><tspan x="993.428" y="1637.73">11</tspan></text>
<text id="day-mini-r3c4" fill="#4D4D4D" style="white-space: pre" xml:space="preserve" font-family="Inter" font-size="16" letter-spacing="-0.01em"><tspan x="1070.89" y="1637.73">12</tspan></text>
<text id="day-mini-r3c5" fill="#4D4D4D" style="white-space: pre" xml:space="preserve" font-family="Inter" font-size="16" letter-spacing="-0.01em"><tspan x="1150.11" y="1637.73">13</tspan></text>
<text id="day-mini-r3c6" fill="#4D4D4D" style="white-space: pre" xml:space="preserve" font-family="Inter" font-size="16" letter-spacing="-0.01em"><tspan x="1229.74" y="1637.73">14</tspan></text>
<text id="day-mini-r3c7" fill="#4D4D4D" style="white-space: pre" xml:space="preserve" font-family="Inter" font-size="16" letter-spacing="-0.01em"><tspan x="1309.99" y="1637.73">15</tspan></text>
<text id="day-mini-r4c1" fill="#4D4D4D" style="white-space: pre" xml:space="preserve" font-family="Inter" font-size="16" letter-spacing="-0.01em"><tspan x="838.73" y="1680.9">6</tspan></text>
<text id="day-mini-r4c2" fill="#4D4D4D" style="white-space: pre" xml:space="preserve" font-family="Inter" font-size="16" letter-spacing="-0.01em"><tspan x="912.011" y="1680.9">17</tspan></text>
<text id="day-mini-r4c3" fill="#4D4D4D" style="white-space: pre" xml:space="preserve" font-family="Inter" font-size="16" letter-spacing="-0.01em"><tspan x="991.006" y="1680.9">18</tspan></text>
<text id="day-mini-r4c4" fill="#4D4D4D" style="white-space: pre" xml:space="preserve" font-family="Inter" font-size="16" letter-spacing="-0.01em"><tspan x="1070.6" y="1680.9">19</tspan></text>
<text id="day-mini-r4c5" fill="#4D4D4D" style="white-space: pre" xml:space="preserve" font-family="Inter" font-size="16" letter-spacing="-0.01em"><tspan x="1148.04" y="1680.9">20</tspan></text>
<text id="day-mini-r4c6" fill="#4D4D4D" style="white-space: pre" xml:space="preserve" font-family="Inter" font-size="16" letter-spacing="-0.01em"><tspan x="1230.32" y="1680.9">21</tspan></text>
<text id="day-mini-r4c7" fill="#4D4D4D" style="white-space: pre" xml:space="preserve" font-family="Inter" font-size="16" letter-spacing="-0.01em"><tspan x="1307.78" y="1680.9">22</tspan></text>
<text id="day-mini-r5c1" fill="#4D4D4D" style="white-space: pre" xml:space="preserve" font-family="Inter" font-size="16" letter-spacing="-0.01em"><tspan x="828.999" y="1724.07">23</tspan></text>
<text id="day-mini-r5c2" fill="#4D4D4D" style="white-space: pre" xml:space="preserve" font-family="Inter" font-size="16" letter-spacing="-0.01em"><tspan x="908.886" y="1724.07">24</tspan></text>
<text id="day-mini-r5c3" fill="#4D4D4D" style="white-space: pre" xml:space="preserve" font-family="Inter" font-size="16" letter-spacing="-0.01em"><tspan x="988.881" y="1724.07">25</tspan></text>
<text id="day-mini-r5c4" fill="#4D4D4D" style="white-space: pre" xml:space="preserve" font-family="Inter" font-size="16" letter-spacing="-0.01em"><tspan x="1068.35" y="1724.07">26</tspan></text>
<text id="day-mini-r5c5" fill="#4D4D4D" style="white-space: pre" xml:space="preserve" font-family="Inter" font-size="16" letter-spacing="-0.01em"><tspan x="1148.9" y="1724.07">27</tspan></text>
<text id="day-mini-r5c6" fill="#4D4D4D" style="white-space: pre" xml:space="preserve" font-family="Inter" font-size="16" letter-spacing="-0.01em"><tspan x="1227.9" y="1724.07">28</tspan></text>
<text id="day-mini-r5c7" fill="#4D4D4D" style="white-space: pre" xml:space="preserve" font-family="Inter" font-size="16" letter-spacing="-0.01em"><tspan x="1322.59" y="1724.07">.</tspan></text>
<text id="day-mini-r6c1" fill="#4D4D4D" style="white-space: pre" xml:space="preserve" font-family="Inter" font-size="16" letter-spacing="-0.01em"><tspan x="844.308" y="1767.23">.</tspan></text>
<text id="day-mini-r6c2" fill="#4D4D4D" style="white-space: pre" xml:space="preserve" font-family="Inter" font-size="16" letter-spacing="-0.01em"><tspan x="924.022" y="1767.23">.</tspan></text>
<text id="day-mini-r6c3" fill="#4D4D4D" style="white-space: pre" xml:space="preserve" font-family="Inter" font-size="16" letter-spacing="-0.01em"><tspan x="1003.74" y="1767.23">.</tspan></text>
<text id="day-mini-r6c4" fill="#4D4D4D" style="white-space: pre" xml:space="preserve" font-family="Inter" font-size="16" letter-spacing="-0.01em"><tspan x="1083.45" y="1767.23">.</tspan></text>
<text id="day-mini-r6c5" fill="#4D4D4D" style="white-space: pre" xml:space="preserve" font-family="Inter" font-size="16" letter-spacing="-0.01em"><tspan x="1163.16" y="1767.23">.</tspan></text>
<text id="day-mini-r6c6" fill="#4D4D4D" style="white-space: pre" xml:space="preserve" font-family="Inter" font-size="16" letter-spacing="-0.01em"><tspan x="1242.88" y="1767.23">.</tspan></text>
<text id="day-mini-r6c7" fill="#4D4D4D" style="white-space: pre" xml:space="preserve" font-family="Inter" font-size="16" letter-spacing="-0.01em"><tspan x="1322.59" y="1767.23">.</tspan></text>
</g>
</g>
<text id="footer-left" fill="#4D4D4D" style="white-space: pre" xml:space="preserve" font-family="Inter" font-size="14" font-weight="500" letter-spacing="-0.01em"><tspan x="132" y="1835.09">2&#x6708; 16, 2026</tspan></text>
<text id="footer-right" fill="#4D4D4D" style="white-space: pre" xml:space="preserve" font-family="Inter" font-size="14" font-weight="500" letter-spacing="-0.01em"><tspan x="1297.52" y="1835.09">&#x21b3; week</tspan></text>
<g id="hdr-meta">
<text id="hdr-big-label" fill="#4D4D4D" style="white-space: pre" xml:space="preserve" font-family="Inter" font-size="16" letter-spacing="-0.01em"><tspan x="166.795" y="136.818">MONTH</tspan></text>
<text id="hdr-meta-top" fill="#4D4D4D" style="white-space: pre" xml:space="preserve" font-family="Inter" font-size="14" font-weight="500" letter-spacing="-0.01em"><tspan x="583.983" y="84.5909">YEAR</tspan></text>
<text id="hdr-month-name" fill="black" style="white-space: pre" xml:space="preserve" font-family="Newsreader" font-size="48" font-weight="bold" letter-spacing="-0.02em"><tspan x="303.716" y="114.78">February</tspan></text>
<text id="hdr-meta-bottom" fill="#4D4D4D" style="white-space: pre" xml:space="preserve" font-family="Inter" font-size="14" font-weight="500" letter-spacing="-0.01em"><tspan x="584.537" y="133.091">2026</tspan></text>
<text id="hdr-big" fill="black" style="white-space: pre" xml:space="preserve" font-family="Newsreader" font-size="64" font-weight="bold" letter-spacing="-0.02em"><tspan x="175.185" y="110.04">2</tspan></text>
</g>
</g>
</g>
<defs>
<clipPath id="clip0_0_1">
<rect width="1404" height="1872" fill="white"/>
</clipPath>
</defs>
</svg>
