<svg width="1404" height="1872" viewBox="0 0 1404 1872" fill="none" xmlns="http://www.w3.org/2000/svg">
<rect width="1404" height="1872" fill="#1E1E1E"/>
<g id="06-category" clip-path="url(#clip0_0_1)">
<path id="page-bg" d="M1404 0H0V1872H1404V0Z" fill="white"/>
<g id="background">
<path id="cat-grid-frame" d="M1346 178H136C133.791 178 132 179.791 132 182V1794C132 1796.21 133.791 1798 136 1798H1346C1348.21 1798 1350 1796.21 1350 1794V182C1350 179.791 1348.21 178 1346 178Z" stroke="#B8B8B8"/>
<g id="rail">
<g id="rail-months-bg">
<rect id="rail-month-01-bg" x="25" y="187" width="66" height="98.75" fill="#DCDCDC"/>
<rect id="rail-month-02-bg" x="25" y="285.75" width="66" height="98.75" fill="#DCDCDC"/>
<rect id="rail-month-03-bg" x="25" y="384.5" width="66" height="98.75" fill="#DCDCDC"/>
<rect id="rail-month-04-bg" x="25" y="483.25" width="66" height="98.75" fill="#DCDCDC"/>
<rect id="rail-month-05-bg" x="25" y="582" width="66" height="98.75" fill="#DCDCDC"/>
<rect id="rail-month-06-bg" x="25" y="680.75" width="66" height="98.75" fill="#DCDCDC"/>
<rect id="rail-month-07-bg" x="25" y="779.5" width="66" height="98.75" fill="#DCDCDC"/>
<rect id="rail-month-08-bg" x="25" y="878.25" width="66" height="98.75" fill="#DCDCDC"/>
<rect id="rail-month-09-bg" x="25" y="977" width="66" height="98.75" fill="#DCDCDC"/>
<rect id="rail-month-10-bg" x="25" y="1075.75" width="66" height="98.75" fill="#DCDCDC"/>
<rect id="rail-month-11-bg" x="25" y="1174.5" width="66" height="98.75" fill="#DCDCDC"/>
<rect id="rail-month-12-bg" x="25" y="1273.25" width="66" height="98.75" fill="#DCDCDC"/>
</g>
<g id="rail-months">
<text id="rail-month-01" transform="matrix(0 -1 1 0 25 286.667)" fill="#4D4D4D" style="white-space: pre" xml:space="preserve" font-family="Inter" font-size="18" font-weight="600" letter-spacing="-0.01em"><tspan x="31.2848" y="39.5455">JAN</tspan></text>
<text id="rail-month-02" transform="matrix(0 -1 1 0 25 385.333)" fill="#4D4D4D" style="white-space: pre" xml:space="preserve" font-family="Inter" font-size="18" font-weight="600" letter-spacing="-0.01em"><tspan x="32.8581" y="39.5455">FEB</tspan></text>
<text id="rail-month-03" transform="matrix(0 -1 1 0 25 484)" fill="#4D4D4D" style="white-space: pre" xml:space="preserve" font-family="Inter" font-size="18" font-weight="600" letter-spacing="-0.01em"><tspan x="28.9909" y="39.5455">MAR</tspan></text>
<text id="rail-month-04" transform="matrix(0 -1 1 0 25 582.667)" fill="#4D4D4D" style="white-space: pre" xml:space="preserve" font-family="Inter" font-size="18" font-weight="600" letter-spacing="-0.01em"><tspan x="31.3551" y="39.5455">APR</tspan></text>
<text id="rail-month-05" transform="matrix(0 -1 1 0 25 681.333)" fill="#4D4D4D" style="white-space: pre" xml:space="preserve" font-family="Inter" font-size="18" font-weight="600" letter-spacing="-0.01em"><tspan x="29.1754" y="39.5455">MAY</tspan></text>
<text id="rail-month-06" transform="matrix(0 -1 1 0 25 780)" fill="#4D4D4D" style="white-space: pre" xml:space="preserve" font-family="Inter" font-size="18" font-weight="600" letter-spacing="-0.01em"><tspan x="31.1969" y="39.5455">JUN</tspan></text>
<text id="rail-month-07" transform="matrix(0 -1 1 0 25 878.667)" fill="#4D4D4D" style="white-space: pre" xml:space="preserve" font-family="Inter" font-size="18" font-weight="600" letter-spacing="-0.01em"><tspan x="32.7702" y="39.5455">JUL</tspan></text>
<text id="rail-month-08" transform="matrix(0 -1 1 0 25 977.333)" fill="#4D4D4D" style="white-space: pre" xml:space="preserve" font-family="Inter" font-size="18" font-weight="600" letter-spacing="-0.01em"><tspan x="29.6061" y="39.5455">AUG</tspan></text>
<text id="rail-month-09" transform="matrix(0 -1 1 0 25 1076)" fill="#4D4D4D" style="white-space: pre" xml:space="preserve" font-family="Inter" font-size="18" font-weight="600" letter-spacing="-0.01em"><tspan x="32.4098" y="39.5455">SEP</tspan></text>
<text id="rail-month-10" transform="matrix(0 -1 1 0 25 1174.67)" fill="#4D4D4D" style="white-space: pre" xml:space="preserve" font-family="Inter" font-size="18" font-weight="600" letter-spacing="-0.01em"><tspan x="29.9137" y="39.5455">OCT</tspan></text>
<text id="rail-month-11" transform="matrix(0 -1 1 0 25 1273.33)" fill="#4D4D4D" style="white-space: pre" xml:space="preserve" font-family="Inter" font-size="18" font-weight="600" letter-spacing="-0.01em"><tspan x="29.7116" y="39.5455">NOV</tspan></text>
<text id="rail-month-12" transform="matrix(0 -1 1 0 25 1372)" fill="#4D4D4D" style="white-space: pre" xml:space="preserve" font-family="Inter" font-size="18" font-weight="600" letter-spacing="-0.01em"><tspan x="30.8366" y="39.5455">DEC</tspan></text>
</g>
<path id="Vector" d="M25 1372H91" stroke="#B8B8B8"/>
<g id="rail-sections-bg">
<rect id="rail-section-4-bg" opacity="0.2" x="25" y="1720.75" width="66" height="116.25" fill="#DCDCDC"/>
<rect id="rail-section-3-bg" opacity="0.2" x="25" y="1604.5" width="66" height="116.25" fill="#DCDCDC"/>
<rect id="rail-section-2-bg" opacity="0.2" x="25" y="1488.25" width="66" height="116.25" fill="#DCDCDC"/>
<rect id="rail-section-1-bg" opacity="0.2" x="25" y="1372" width="66" height="116.25" fill="#DCDCDC"/>
</g>
<g id="rail-sections">
<text id="rail-section-1" transform="matrix(0 -1 1 0 25 1488.25)" fill="#4D4D4D" style="white-space: pre" xml:space="preserve" font-family="Inter" font-size="16" letter-spacing="-0.01em"><tspan x="36.4919" y="38.8182">LISTS</tspan></text>
<text id="rail-section-2" transform="matrix(0 -1 1 0 25 1604.5)" fill="#4D4D4D" style="white-space: pre" xml:space="preserve" font-family="Inter" font-size="16" letter-spacing="-0.01em"><tspan x="17.2163" y="38.8182">PROJECTS</tspan></text>
<text id="rail-section-3" transform="matrix(0 -1 1 0 25 1720.75)" fill="#4D4D4D" style="white-space: pre" xml:space="preserve" font-family="Inter" font-size="16" letter-spacing="-0.01em"><tspan x="17.685" y="38.8182">MEETINGS</tspan></text>
<text id="rail-section-4" transform="matrix(0 -1 1 0 25 1837)" fill="#4D4D4D" style="white-space: pre" xml:space="preserve" font-family="Inter" font-size="16" letter-spacing="-0.01em"><tspan x="21.2066" y="38.8182">SCRATCH</tspan></text>
</g>
<g id="rail-index-chip">
<path id="Vector_2" d="M58 199.5L25 187V106C25 98.5 31 93 37.5 93H58H78.5C85 93 91 98.5 91 106V187L58 199.5Z" fill="black"/>
<text id="rail-index-label" transform="matrix(0 -1 1 0 45 199)" fill="white" style="white-space: pre" xml:space="preserve" font-family="Inter" font-size="18" font-weight="600" letter-spacing="-0.01em"><tspan x="26.0172" y="19.0455">INDEX</tspan></text>
</g>
</g>
<g id="hdr-layout">
<path id="Vector_3" d="M261.468 56V152" stroke="#DCDCDC"/>
<path id="Vector_4" d="M546.764 55V153" stroke="#DCDCDC"/>
<path id="Vector_5" d="M546.764 104H657" stroke="#DCDCDC"/>
<rect id="hdr-datebox-frame" x="132.5" y="55.5" width="524" height="97" rx="7.5" stroke="#B8B8B8"/>
</g>
<text id="hdr-right" fill="#B8B8B8" style="white-space: pre" xml:space="preserve" font-family="Noto Sans" font-size="64" font-weight="bold" letter-spacing="-0.02em"><tspan x="997.647" y="121.832">NOTEBOOK</tspan></text>
</g>
<g id="var-ink">
<g id="footer-rule">
<path id="Vector_6" d="M132 1812H1350" stroke="#808080"/>
</g>
<text id="footer-left" fill="#4D4D4D" style="white-space: pre" xml:space="preserve" font-family="Inter" font-size="14" font-weight="500" letter-spacing="-0.01em"><tspan x="132" y="1835.09">LISTS</tspan></text>
<text id="footer-right" fill="#4D4D4D" style="white-space: pre" xml:space="preserve" font-family="Inter" font-size="14" font-weight="500" letter-spacing="-0.01em"><tspan x="1296.84" y="1835.09">&#x21b3; index</tspan></text>
<g id="hdr-meta">
<text id="hdr-big-label" fill="#4D4D4D" style="white-space: pre" xml:space="preserve" font-family="Inter" font-size="16" letter-spacing="-0.01em"><tspan x="166.795" y="136.818">MONTH</tspan></text>
<text id="hdr-meta-top" fill="#4D4D4D" style="white-space: pre" xml:space="preserve" font-family="Inter" font-size="14" font-weight="500" letter-spacing="-0.01em"><tspan x="583.983" y="84.5909">YEAR</tspan></text>
<text id="hdr-month-name" fill="black" style="white-space: pre" xml:space="preserve" font-family="Newsreader" font-size="48" font-weight="bold" letter-spacing="-0.02em"><tspan x="303.716" y="114.78">February</tspan></text>
<text id="hdr-meta-bottom" fill="#4D4D4D" style="white-space: pre" xml:space="preserve" font-family="Inter" font-size="14" font-weight="500" letter-spacing="-0.01em"><tspan x="584.537" y="133.091">2026</tspan></text>
<text id="hdr-big" fill="black" style="white-space: pre" xml:space="preserve" font-family="Newsreader" font-size="64" font-weight="bold" letter-spacing="-0.02em"><tspan x="175.185" y="110.04">2</tspan></text>
</g>
</g>
</g>
<defs>
<clipPath id="clip0_0_1">
<rect width="1404" height="1872" fill="white"/>
</clipPath>
</defs>
</svg>
