<svg width="1404" height="1872" viewBox="0 0 1404 1872" fill="none" xmlns="http://www.w3.org/2000/svg">
<rect width="1404" height="1872" fill="#1E1E1E"/>
<g id="04-week-schedule" clip-path="url(#clip0_0_1)">
<path id="page-bg" d="M1404 0H0V1872H1404V0Z" fill="white"/>
<g id="background">
<path id="Vector" d="M1346 178H136C133.791 178 132 179.791 132 182V1794C132 1796.21 133.791 1798 136 1798H1346C1348.21 1798 1350 1796.21 1350 1794V182C1350 179.791 1348.21 178 1346 178Z" stroke="#D7D4CF"/>
<g id="week-schedule-grid">
<g id="ws-day-1">
<path id="Vector_2" d="M132 218H306" stroke="#41587C" stroke-width="2"/>
<text id="ws-day-1-wd" fill="#9AA0A8" style="white-space: pre" xml:space="preserve" font-family="Noto Sans" font-size="10" letter-spacing="0em"><tspan x="166" y="206.88">MON</tspan></text>
<text id="&#230;&#156;&#136;" fill="#9AA0A8" style="white-space: pre" xml:space="preserve" font-family="Noto Sans" font-size="12" letter-spacing="0em"><tspan x="204" y="206.656">&#x6708;</tspan></text>
<g id="ws-day-1-hours">
<path id="Vector_3" d="M132 218H306" stroke="#ECEBE6"/>
<path id="Vector_4" d="M132 261.889H306" stroke="#ECEBE6" stroke-dasharray="2 6"/>
<text id="ws-hour-5" fill="#BDBBB4" style="white-space: pre" xml:space="preserve" font-family="Noto Sans" font-size="10" letter-spacing="0em"><tspan x="138" y="231.88">5</tspan></text>
<path id="Vector_5" d="M132 305.778H306" stroke="#ECEBE6"/>
<path id="Vector_6" d="M132 349.667H306" stroke="#ECEBE6" stroke-dasharray="2 6"/>
<text id="ws-hour-6" fill="#BDBBB4" style="white-space: pre" xml:space="preserve" font-family="Noto Sans" font-size="10" letter-spacing="0em"><tspan x="138" y="319.658">6</tspan></text>
<path id="Vector_7" d="M132 393.556H306" stroke="#ECEBE6"/>
<path id="Vector_8" d="M132 437.444H306" stroke="#ECEBE6" stroke-dasharray="2 6"/>
<text id="ws-hour-7" fill="#BDBBB4" style="white-space: pre" xml:space="preserve" font-family="Noto Sans" font-size="10" letter-spacing="0em"><tspan x="138" y="407.436">7</tspan></text>
<path id="Vector_9" d="M132 481.333H306" stroke="#ECEBE6"/>
<path id="Vector_10" d="M132 525.222H306" stroke="#ECEBE6" stroke-dasharray="2 6"/>
<text id="ws-hour-8" fill="#BDBBB4" style="white-space: pre" xml:space="preserve" font-family="Noto Sans" font-size="10" letter-spacing="0em"><tspan x="138" y="495.213">8</tspan></text>
<path id="Vector_11" d="M132 569.111H306" stroke="#ECEBE6"/>
<path id="Vector_12" d="M132 613H306" stroke="#ECEBE6" stroke-dasharray="2 6"/>
<text id="ws-hour-9" fill="#BDBBB4" style="white-space: pre" xml:space="preserve" font-family="Noto Sans" font-size="10" letter-spacing="0em"><tspan x="138" y="582.991">9</tspan></text>
<path id="Vector_13" d="M132 656.889H306" stroke="#ECEBE6"/>
<path id="Vector_14" d="M132 700.778H306" stroke="#ECEBE6" stroke-dasharray="2 6"/>
<text id="ws-hour-10" fill="#BDBBB4" style="white-space: pre" xml:space="preserve" font-family="Noto Sans" font-size="10" letter-spacing="0em"><tspan x="138" y="670.769">10</tspan></text>
<path id="Vector_15" d="M132 744.667H306" stroke="#ECEBE6"/>
<path id="Vector_16" d="M132 788.556H306" stroke="#ECEBE6" stroke-dasharray="2 6"/>
<text id="ws-hour-11" fill="#BDBBB4" style="white-space: pre" xml:space="preserve" font-family="Noto Sans" font-size="10" letter-spacing="0em"><tspan x="138" y="758.547">11</tspan></text>
<path id="Vector_17" d="M132 832.444H306" stroke="#ECEBE6"/>
<path id="Vector_18" d="M132 876.333H306" stroke="#ECEBE6" stroke-dasharray="2 6"/>
<text id="ws-hour-12" fill="#BDBBB4" style="white-space: pre" xml:space="preserve" font-family="Noto Sans" font-size="10" letter-spacing="0em"><tspan x="138" y="846.324">12</tspan></text>
<path id="Vector_19" d="M132 920.222H306" stroke="#ECEBE6"/>
<path id="Vector_20" d="M132 964.111H306" stroke="#ECEBE6" stroke-dasharray="2 6"/>
<text id="ws-hour-13" fill="#BDBBB4" style="white-space: pre" xml:space="preserve" font-family="Noto Sans" font-size="10" letter-spacing="0em"><tspan x="138" y="934.102">1</tspan></text>
<path id="Vector_21" d="M132 1008H306" stroke="#ECEBE6"/>
<path id="Vector_22" d="M132 1051.89H306" stroke="#ECEBE6" stroke-dasharray="2 6"/>
<text id="ws-hour-14" fill="#BDBBB4" style="white-space: pre" xml:space="preserve" font-family="Noto Sans" font-size="10" letter-spacing="0em"><tspan x="138" y="1021.88">2</tspan></text>
<path id="Vector_23" d="M132 1095.78H306" stroke="#ECEBE6"/>
<path id="Vector_24" d="M132 1139.67H306" stroke="#ECEBE6" stroke-dasharray="2 6"/>
<text id="ws-hour-15" fill="#BDBBB4" style="white-space: pre" xml:space="preserve" font-family="Noto Sans" font-size="10" letter-spacing="0em"><tspan x="138" y="1109.66">3</tspan></text>
<path id="Vector_25" d="M132 1183.56H306" stroke="#ECEBE6"/>
<path id="Vector_26" d="M132 1227.44H306" stroke="#ECEBE6" stroke-dasharray="2 6"/>
<text id="ws-hour-16" fill="#BDBBB4" style="white-space: pre" xml:space="preserve" font-family="Noto Sans" font-size="10" letter-spacing="0em"><tspan x="138" y="1197.44">4</tspan></text>
<path id="Vector_27" d="M132 1271.33H306" stroke="#ECEBE6"/>
<path id="Vector_28" d="M132 1315.22H306" stroke="#ECEBE6" stroke-dasharray="2 6"/>
<text id="ws-hour-17" fill="#BDBBB4" style="white-space: pre" xml:space="preserve" font-family="Noto Sans" font-size="10" letter-spacing="0em"><tspan x="138" y="1285.21">5</tspan></text>
<path id="Vector_29" d="M132 1359.11H306" stroke="#ECEBE6"/>
<path id="Vector_30" d="M132 1403H306" stroke="#ECEBE6" stroke-dasharray="2 6"/>
<text id="ws-hour-18" fill="#BDBBB4" style="white-space: pre" xml:space="preserve" font-family="Noto Sans" font-size="10" letter-spacing="0em"><tspan x="138" y="1372.99">6</tspan></text>
<path id="Vector_31" d="M132 1446.89H306" stroke="#ECEBE6"/>
<path id="Vector_32" d="M132 1490.78H306" stroke="#ECEBE6" stroke-dasharray="2 6"/>
<text id="ws-hour-19" fill="#BDBBB4" style="white-space: pre" xml:space="preserve" font-family="Noto Sans" font-size="10" letter-spacing="0em"><tspan x="138" y="1460.77">7</tspan></text>
<path id="Vector_33" d="M132 1534.67H306" stroke="#ECEBE6"/>
<path id="Vector_34" d="M132 1578.56H306" stroke="#ECEBE6" stroke-dasharray="2 6"/>
<text id="ws-hour-20" fill="#BDBBB4" style="white-space: pre" xml:space="preserve" font-family="Noto Sans" font-size="10" letter-spacing="0em"><tspan x="138" y="1548.55">8</tspan></text>
<path id="Vector_35" d="M132 1622.44H306" stroke="#ECEBE6"/>
<path id="Vector_36" d="M132 1666.33H306" stroke="#ECEBE6" stroke-dasharray="2 6"/>
<text id="ws-hour-21" fill="#BDBBB4" style="white-space: pre" xml:space="preserve" font-family="Noto Sans" font-size="10" letter-spacing="0em"><tspan x="138" y="1636.32">9</tspan></text>
<path id="Vector_37" d="M132 1710.22H306" stroke="#ECEBE6"/>
<path id="Vector_38" d="M132 1754.11H306" stroke="#ECEBE6" stroke-dasharray="2 6"/>
<text id="ws-hour-22" fill="#BDBBB4" style="white-space: pre" xml:space="preserve" font-family="Noto Sans" font-size="10" letter-spacing="0em"><tspan x="138" y="1724.1">10</tspan></text>
</g>
</g>
<g id="ws-day-2">
<path id="Vector_39" d="M306 178V1798" stroke="#E2DFDA"/>
<path id="Vector_40" d="M306 218H480" stroke="#41587C" stroke-width="2"/>
<text id="ws-day-2-wd" fill="#9AA0A8" style="white-space: pre" xml:space="preserve" font-family="Noto Sans" font-size="10" letter-spacing="0em"><tspan x="340" y="206.88">TUE</tspan></text>
<text id="&#231;&#129;&#171;" fill="#9AA0A8" style="white-space: pre" xml:space="preserve" font-family="Noto Sans" font-size="12" letter-spacing="0em"><tspan x="378" y="206.656">&#x706b;</tspan></text>
<g id="ws-day-2-hours">
<path id="Vector_41" d="M306 218H480" stroke="#ECEBE6"/>
<path id="Vector_42" d="M306 261.889H480" stroke="#ECEBE6" stroke-dasharray="2 6"/>
<path id="Vector_43" d="M306 305.778H480" stroke="#ECEBE6"/>
<path id="Vector_44" d="M306 349.667H480" stroke="#ECEBE6" stroke-dasharray="2 6"/>
<path id="Vector_45" d="M306 393.556H480" stroke="#ECEBE6"/>
<path id="Vector_46" d="M306 437.444H480" stroke="#ECEBE6" stroke-dasharray="2 6"/>
<path id="Vector_47" d="M306 481.333H480" stroke="#ECEBE6"/>
<path id="Vector_48" d="M306 525.222H480" stroke="#ECEBE6" stroke-dasharray="2 6"/>
<path id="Vector_49" d="M306 569.111H480" stroke="#ECEBE6"/>
<path id="Vector_50" d="M306 613H480" stroke="#ECEBE6" stroke-dasharray="2 6"/>
<path id="Vector_51" d="M306 656.889H480" stroke="#ECEBE6"/>
<path id="Vector_52" d="M306 700.778H480" stroke="#ECEBE6" stroke-dasharray="2 6"/>
<path id="Vector_53" d="M306 744.667H480" stroke="#ECEBE6"/>
<path id="Vector_54" d="M306 788.556H480" stroke="#ECEBE6" stroke-dasharray="2 6"/>
<path id="Vector_55" d="M306 832.444H480" stroke="#ECEBE6"/>
<path id="Vector_56" d="M306 876.333H480" stroke="#ECEBE6" stroke-dasharray="2 6"/>
<path id="Vector_57" d="M306 920.222H480" stroke="#ECEBE6"/>
<path id="Vector_58" d="M306 964.111H480" stroke="#ECEBE6" stroke-dasharray="2 6"/>
<path id="Vector_59" d="M306 1008H480" stroke="#ECEBE6"/>
<path id="Vector_60" d="M306 1051.89H480" stroke="#ECEBE6" stroke-dasharray="2 6"/>
<path id="Vector_61" d="M306 1095.78H480" stroke="#ECEBE6"/>
<path id="Vector_62" d="M306 1139.67H480" stroke="#ECEBE6" stroke-dasharray="2 6"/>
<path id="Vector_63" d="M306 1183.56H480" stroke="#ECEBE6"/>
<path id="Vector_64" d="M306 1227.44H480" stroke="#ECEBE6" stroke-dasharray="2 6"/>
<path id="Vector_65" d="M306 1271.33H480" stroke="#ECEBE6"/>
<path id="Vector_66" d="M306 1315.22H480" stroke="#ECEBE6" stroke-dasharray="2 6"/>
<path id="Vector_67" d="M306 1359.11H480" stroke="#ECEBE6"/>
<path id="Vector_68" d="M306 1403H480" stroke="#ECEBE6" stroke-dasharray="2 6"/>
<path id="Vector_69" d="M306 1446.89H480" stroke="#ECEBE6"/>
<path id="Vector_70" d="M306 1490.78H480" stroke="#ECEBE6" stroke-dasharray="2 6"/>
<path id="Vector_71" d="M306 1534.67H480" stroke="#ECEBE6"/>
<path id="Vector_72" d="M306 1578.56H480" stroke="#ECEBE6" stroke-dasharray="2 6"/>
<path id="Vector_73" d="M306 1622.44H480" stroke="#ECEBE6"/>
<path id="Vector_74" d="M306 1666.33H480" stroke="#ECEBE6" stroke-dasharray="2 6"/>
<path id="Vector_75" d="M306 1710.22H480" stroke="#ECEBE6"/>
<path id="Vector_76" d="M306 1754.11H480" stroke="#ECEBE6" stroke-dasharray="2 6"/>
</g>
</g>
<g id="ws-day-3">
<path id="Vector_77" d="M480 178V1798" stroke="#E2DFDA"/>
<path id="Vector_78" d="M480 218H654" stroke="#41587C" stroke-width="2"/>
<text id="ws-day-3-wd" fill="#9AA0A8" style="white-space: pre" xml:space="preserve" font-family="Noto Sans" font-size="10" letter-spacing="0em"><tspan x="514" y="206.88">WED</tspan></text>
<text id="&#230;&#176;&#180;" fill="#9AA0A8" style="white-space: pre" xml:space="preserve" font-family="Noto Sans" font-size="12" letter-spacing="0em"><tspan x="552" y="206.656">&#x6c34;</tspan></text>
<g id="ws-day-3-hours">
<path id="Vector_79" d="M480 218H654" stroke="#ECEBE6"/>
<path id="Vector_80" d="M480 261.889H654" stroke="#ECEBE6" stroke-dasharray="2 6"/>
<path id="Vector_81" d="M480 305.778H654" stroke="#ECEBE6"/>
<path id="Vector_82" d="M480 349.667H654" stroke="#ECEBE6" stroke-dasharray="2 6"/>
<path id="Vector_83" d="M480 393.556H654" stroke="#ECEBE6"/>
<path id="Vector_84" d="M480 437.444H654" stroke="#ECEBE6" stroke-dasharray="2 6"/>
<path id="Vector_85" d="M480 481.333H654" stroke="#ECEBE6"/>
<path id="Vector_86" d="M480 525.222H654" stroke="#ECEBE6" stroke-dasharray="2 6"/>
<path id="Vector_87" d="M480 569.111H654" stroke="#ECEBE6"/>
<path id="Vector_88" d="M480 613H654" stroke="#ECEBE6" stroke-dasharray="2 6"/>
<path id="Vector_89" d="M480 656.889H654" stroke="#ECEBE6"/>
<path id="Vector_90" d="M480 700.778H654" stroke="#ECEBE6" stroke-dasharray="2 6"/>
<path id="Vector_91" d="M480 744.667H654" stroke="#ECEBE6"/>
<path id="Vector_92" d="M480 788.556H654" stroke="#ECEBE6" stroke-dasharray="2 6"/>
<path id="Vector_93" d="M480 832.444H654" stroke="#ECEBE6"/>
<path id="Vector_94" d="M480 876.333H654" stroke="#ECEBE6" stroke-dasharray="2 6"/>
<path id="Vector_95" d="M480 920.222H654" stroke="#ECEBE6"/>
<path id="Vector_96" d="M480 964.111H654" stroke="#ECEBE6" stroke-dasharray="2 6"/>
<path id="Vector_97" d="M480 1008H654" stroke="#ECEBE6"/>
<path id="Vector_98" d="M480 1051.89H654" stroke="#ECEBE6" stroke-dasharray="2 6"/>
<path id="Vector_99" d="M480 1095.78H654" stroke="#ECEBE6"/>
<path id="Vector_100" d="M480 1139.67H654" stroke="#ECEBE6" stroke-dasharray="2 6"/>
<path id="Vector_101" d="M480 1183.56H654" stroke="#ECEBE6"/>
<path id="Vector_102" d="M480 1227.44H654" stroke="#ECEBE6" stroke-dasharray="2 6"/>
<path id="Vector_103" d="M480 1271.33H654" stroke="#ECEBE6"/>
<path id="Vector_104" d="M480 1315.22H654" stroke="#ECEBE6" stroke-dasharray="2 6"/>
<path id="Vector_105" d="M480 1359.11H654" stroke="#ECEBE6"/>
<path id="Vector_106" d="M480 1403H654" stroke="#ECEBE6" stroke-dasharray="2 6"/>
<path id="Vector_107" d="M480 1446.89H654" stroke="#ECEBE6"/>
<path id="Vector_108" d="M480 1490.78H654" stroke="#ECEBE6" stroke-dasharray="2 6"/>
<path id="Vector_109" d="M480 1534.67H654" stroke="#ECEBE6"/>
<path id="Vector_110" d="M480 1578.56H654" stroke="#ECEBE6" stroke-dasharray="2 6"/>
<path id="Vector_111" d="M480 1622.44H654" stroke="#ECEBE6"/>
<path id="Vector_112" d="M480 1666.33H654" stroke="#ECEBE6" stroke-dasharray="2 6"/>
<path id="Vector_113" d="M480 1710.22H654" stroke="#ECEBE6"/>
<path id="Vector_114" d="M480 1754.11H654" stroke="#ECEBE6" stroke-dasharray="2 6"/>
</g>
</g>
<g id="ws-day-4">
<path id="Vector_115" d="M654 178V1798" stroke="#E2DFDA"/>
<path id="Vector_116" d="M654 218H828" stroke="#41587C" stroke-width="2"/>
<text id="ws-day-4-wd" fill="#9AA0A8" style="white-space: pre" xml:space="preserve" font-family="Noto Sans" font-size="10" letter-spacing="0em"><tspan x="688" y="206.88">THU</tspan></text>
<text id="&#230;&#156;&#168;" fill="#9AA0A8" style="white-space: pre" xml:space="preserve" font-family="Noto Sans" font-size="12" letter-spacing="0em"><tspan x="726" y="206.656">&#x6728;</tspan></text>
<g id="ws-day-4-hours">
<path id="Vector_117" d="M654 218H828" stroke="#ECEBE6"/>
<path id="Vector_118" d="M654 261.889H828" stroke="#ECEBE6" stroke-dasharray="2 6"/>
<path id="Vector_119" d="M654 305.778H828" stroke="#ECEBE6"/>
<path id="Vector_120" d="M654 349.667H828" stroke="#ECEBE6" stroke-dasharray="2 6"/>
<path id="Vector_121" d="M654 393.556H828" stroke="#ECEBE6"/>
<path id="Vector_122" d="M654 437.444H828" stroke="#ECEBE6" stroke-dasharray="2 6"/>
<path id="Vector_123" d="M654 481.333H828" stroke="#ECEBE6"/>
<path id="Vector_124" d="M654 525.222H828" stroke="#ECEBE6" stroke-dasharray="2 6"/>
<path id="Vector_125" d="M654 569.111H828" stroke="#ECEBE6"/>
<path id="Vector_126" d="M654 613H828" stroke="#ECEBE6" stroke-dasharray="2 6"/>
<path id="Vector_127" d="M654 656.889H828" stroke="#ECEBE6"/>
<path id="Vector_128" d="M654 700.778H828" stroke="#ECEBE6" stroke-dasharray="2 6"/>
<path id="Vector_129" d="M654 744.667H828" stroke="#ECEBE6"/>
<path id="Vector_130" d="M654 788.556H828" stroke="#ECEBE6" stroke-dasharray="2 6"/>
<path id="Vector_131" d="M654 832.444H828" stroke="#ECEBE6"/>
<path id="Vector_132" d="M654 876.333H828" stroke="#ECEBE6" stroke-dasharray="2 6"/>
<path id="Vector_133" d="M654 920.222H828" stroke="#ECEBE6"/>
<path id="Vector_134" d="M654 964.111H828" stroke="#ECEBE6" stroke-dasharray="2 6"/>
<path id="Vector_135" d="M654 1008H828" stroke="#ECEBE6"/>
<path id="Vector_136" d="M654 1051.89H828" stroke="#ECEBE6" stroke-dasharray="2 6"/>
<path id="Vector_137" d="M654 1095.78H828" stroke="#ECEBE6"/>
<path id="Vector_138" d="M654 1139.67H828" stroke="#ECEBE6" stroke-dasharray="2 6"/>
<path id="Vector_139" d="M654 1183.56H828" stroke="#ECEBE6"/>
<path id="Vector_140" d="M654 1227.44H828" stroke="#ECEBE6" stroke-dasharray="2 6"/>
<path id="Vector_141" d="M654 1271.33H828" stroke="#ECEBE6"/>
<path id="Vector_142" d="M654 1315.22H828" stroke="#ECEBE6" stroke-dasharray="2 6"/>
<path id="Vector_143" d="M654 1359.11H828" stroke="#ECEBE6"/>
<path id="Vector_144" d="M654 1403H828" stroke="#ECEBE6" stroke-dasharray="2 6"/>
<path id="Vector_145" d="M654 1446.89H828" stroke="#ECEBE6"/>
<path id="Vector_146" d="M654 1490.78H828" stroke="#ECEBE6" stroke-dasharray="2 6"/>
<path id="Vector_147" d="M654 1534.67H828" stroke="#ECEBE6"/>
<path id="Vector_148" d="M654 1578.56H828" stroke="#ECEBE6" stroke-dasharray="2 6"/>
<path id="Vector_149" d="M654 1622.44H828" stroke="#ECEBE6"/>
<path id="Vector_150" d="M654 1666.33H828" stroke="#ECEBE6" stroke-dasharray="2 6"/>
<path id="Vector_151" d="M654 1710.22H828" stroke="#ECEBE6"/>
<path id="Vector_152" d="M654 1754.11H828" stroke="#ECEBE6" stroke-dasharray="2 6"/>
</g>
</g>
<g id="ws-day-5">
<path id="Vector_153" d="M828 178V1798" stroke="#E2DFDA"/>
<path id="Vector_154" d="M828 218H1002" stroke="#41587C" stroke-width="2"/>
<text id="ws-day-5-wd" fill="#9AA0A8" style="white-space: pre" xml:space="preserve" font-family="Noto Sans" font-size="10" letter-spacing="0em"><tspan x="862" y="206.88">FRI</tspan></text>
<text id="&#233;&#135;&#145;" fill="#9AA0A8" style="white-space: pre" xml:space="preserve" font-family="Noto Sans" font-size="12" letter-spacing="0em"><tspan x="900" y="206.656">&#x91d1;</tspan></text>
<g id="ws-day-5-hours">
<path id="Vector_155" d="M828 218H1002" stroke="#ECEBE6"/>
<path id="Vector_156" d="M828 261.889H1002" stroke="#ECEBE6" stroke-dasharray="2 6"/>
<path id="Vector_157" d="M828 305.778H1002" stroke="#ECEBE6"/>
<path id="Vector_158" d="M828 349.667H1002" stroke="#ECEBE6" stroke-dasharray="2 6"/>
<path id="Vector_159" d="M828 393.556H1002" stroke="#ECEBE6"/>
<path id="Vector_160" d="M828 437.444H1002" stroke="#ECEBE6" stroke-dasharray="2 6"/>
<path id="Vector_161" d="M828 481.333H1002" stroke="#ECEBE6"/>
<path id="Vector_162" d="M828 525.222H1002" stroke="#ECEBE6" stroke-dasharray="2 6"/>
<path id="Vector_163" d="M828 569.111H1002" stroke="#ECEBE6"/>
<path id="Vector_164" d="M828 613H1002" stroke="#ECEBE6" stroke-dasharray="2 6"/>
<path id="Vector_165" d="M828 656.889H1002" stroke="#ECEBE6"/>
<path id="Vector_166" d="M828 700.778H1002" stroke="#ECEBE6" stroke-dasharray="2 6"/>
<path id="Vector_167" d="M828 744.667H1002" stroke="#ECEBE6"/>
<path id="Vector_168" d="M828 788.556H1002" stroke="#ECEBE6" stroke-dasharray="2 6"/>
<path id="Vector_169" d="M828 832.444H1002" stroke="#ECEBE6"/>
<path id="Vector_170" d="M828 876.333H1002" stroke="#ECEBE6" stroke-dasharray="2 6"/>
<path id="Vector_171" d="M828 920.222H1002" stroke="#ECEBE6"/>
<path id="Vector_172" d="M828 964.111H1002" stroke="#ECEBE6" stroke-dasharray="2 6"/>
<path id="Vector_173" d="M828 1008H1002" stroke="#ECEBE6"/>
<path id="Vector_174" d="M828 1051.89H1002" stroke="#ECEBE6" stroke-dasharray="2 6"/>
<path id="Vector_175" d="M828 1095.78H1002" stroke="#ECEBE6"/>
<path id="Vector_176" d="M828 1139.67H1002" stroke="#ECEBE6" stroke-dasharray="2 6"/>
<path id="Vector_177" d="M828 1183.56H1002" stroke="#ECEBE6"/>
<path id="Vector_178" d="M828 1227.44H1002" stroke="#ECEBE6" stroke-dasharray="2 6"/>
<path id="Vector_179" d="M828 1271.33H1002" stroke="#ECEBE6"/>
<path id="Vector_180" d="M828 1315.22H1002" stroke="#ECEBE6" stroke-dasharray="2 6"/>
<path id="Vector_181" d="M828 1359.11H1002" stroke="#ECEBE6"/>
<path id="Vector_182" d="M828 1403H1002" stroke="#ECEBE6" stroke-dasharray="2 6"/>
<path id="Vector_183" d="M828 1446.89H1002" stroke="#ECEBE6"/>
<path id="Vector_184" d="M828 1490.78H1002" stroke="#ECEBE6" stroke-dasharray="2 6"/>
<path id="Vector_185" d="M828 1534.67H1002" stroke="#ECEBE6"/>
<path id="Vector_186" d="M828 1578.56H1002" stroke="#ECEBE6" stroke-dasharray="2 6"/>
<path id="Vector_187" d="M828 1622.44H1002" stroke="#ECEBE6"/>
<path id="Vector_188" d="M828 1666.33H1002" stroke="#ECEBE6" stroke-dasharray="2 6"/>
<path id="Vector_189" d="M828 1710.22H1002" stroke="#ECEBE6"/>
<path id="Vector_190" d="M828 1754.11H1002" stroke="#ECEBE6" stroke-dasharray="2 6"/>
</g>
</g>
<g id="ws-day-6">
<path id="ws-day-6-shade" d="M1176 178H1002V1798H1176V178Z" fill="#DDE0E5" fill-opacity="0.3"/>
<path id="Vector_191" d="M1002 178V1798" stroke="#E2DFDA"/>
<path id="Vector_192" d="M1002 218H1176" stroke="#41587C" stroke-width="2"/>
<text id="ws-day-6-wd" fill="#9AA0A8" style="white-space: pre" xml:space="preserve" font-family="Noto Sans" font-size="10" letter-spacing="0em"><tspan x="1036" y="206.88">SAT</tspan></text>
<text id="&#229;&#156;&#159;" fill="#9AA0A8" style="white-space: pre" xml:space="preserve" font-family="Noto Sans" font-size="12" letter-spacing="0em"><tspan x="1074" y="206.656">&#x571f;</tspan></text>
<g id="ws-day-6-hours">
<path id="Vector_193" d="M1002 218H1176" stroke="#ECEBE6"/>
<path id="Vector_194" d="M1002 261.889H1176" stroke="#ECEBE6" stroke-dasharray="2 6"/>
<path id="Vector_195" d="M1002 305.778H1176" stroke="#ECEBE6"/>
<path id="Vector_196" d="M1002 349.667H1176" stroke="#ECEBE6" stroke-dasharray="2 6"/>
<path id="Vector_197" d="M1002 393.556H1176" stroke="#ECEBE6"/>
<path id="Vector_198" d="M1002 437.444H1176" stroke="#ECEBE6" stroke-dasharray="2 6"/>
<path id="Vector_199" d="M1002 481.333H1176" stroke="#ECEBE6"/>
<path id="Vector_200" d="M1002 525.222H1176" stroke="#ECEBE6" stroke-dasharray="2 6"/>
<path id="Vector_201" d="M1002 569.111H1176" stroke="#ECEBE6"/>
<path id="Vector_202" d="M1002 613H1176" stroke="#ECEBE6" stroke-dasharray="2 6"/>
<path id="Vector_203" d="M1002 656.889H1176" stroke="#ECEBE6"/>
<path id="Vector_204" d="M1002 700.778H1176" stroke="#ECEBE6" stroke-dasharray="2 6"/>
<path id="Vector_205" d="M1002 744.667H1176" stroke="#ECEBE6"/>
<path id="Vector_206" d="M1002 788.556H1176" stroke="#ECEBE6" stroke-dasharray="2 6"/>
<path id="Vector_207" d="M1002 832.444H1176" stroke="#ECEBE6"/>
<path id="Vector_208" d="M1002 876.333H1176" stroke="#ECEBE6" stroke-dasharray="2 6"/>
<path id="Vector_209" d="M1002 920.222H1176" stroke="#ECEBE6"/>
<path id="Vector_210" d="M1002 964.111H1176" stroke="#ECEBE6" stroke-dasharray="2 6"/>
<path id="Vector_211" d="M1002 1008H1176" stroke="#ECEBE6"/>
<path id="Vector_212" d="M1002 1051.89H1176" stroke="#ECEBE6" stroke-dasharray="2 6"/>
<path id="Vector_213" d="M1002 1095.78H1176" stroke="#ECEBE6"/>
<path id="Vector_214" d="M1002 1139.67H1176" stroke="#ECEBE6" stroke-dasharray="2 6"/>
<path id="Vector_215" d="M1002 1183.56H1176" stroke="#ECEBE6"/>
<path id="Vector_216" d="M1002 1227.44H1176" stroke="#ECEBE6" stroke-dasharray="2 6"/>
<path id="Vector_217" d="M1002 1271.33H1176" stroke="#ECEBE6"/>
<path id="Vector_218" d="M1002 1315.22H1176" stroke="#ECEBE6" stroke-dasharray="2 6"/>
<path id="Vector_219" d="M1002 1359.11H1176" stroke="#ECEBE6"/>
<path id="Vector_220" d="M1002 1403H1176" stroke="#ECEBE6" stroke-dasharray="2 6"/>
<path id="Vector_221" d="M1002 1446.89H1176" stroke="#ECEBE6"/>
<path id="Vector_222" d="M1002 1490.78H1176" stroke="#ECEBE6" stroke-dasharray="2 6"/>
<path id="Vector_223" d="M1002 1534.67H1176" stroke="#ECEBE6"/>
<path id="Vector_224" d="M1002 1578.56H1176" stroke="#ECEBE6" stroke-dasharray="2 6"/>
<path id="Vector_225" d="M1002 1622.44H1176" stroke="#ECEBE6"/>
<path id="Vector_226" d="M1002 1666.33H1176" stroke="#ECEBE6" stroke-dasharray="2 6"/>
<path id="Vector_227" d="M1002 1710.22H1176" stroke="#ECEBE6"/>
<path id="Vector_228" d="M1002 1754.11H1176" stroke="#ECEBE6" stroke-dasharray="2 6"/>
</g>
</g>
<g id="ws-day-7">
<path id="ws-day-7-shade" d="M1350 178H1176V1798H1350V178Z" fill="#DDE0E5" fill-opacity="0.3"/>
<path id="Vector_229" d="M1176 178V1798" stroke="#E2DFDA"/>
<path id="Vector_230" d="M1176 218H1350" stroke="#41587C" stroke-width="2"/>
<text id="ws-day-7-wd" fill="#9AA0A8" style="white-space: pre" xml:space="preserve" font-family="Noto Sans" font-size="10" letter-spacing="0em"><tspan x="1210" y="206.88">SUN</tspan></text>
<text id="&#230;&#151;&#165;" fill="#9AA0A8" style="white-space: pre" xml:space="preserve" font-family="Noto Sans" font-size="12" letter-spacing="0em"><tspan x="1248" y="206.656">&#x65e5;</tspan></text>
<g id="ws-day-7-hours">
<path id="Vector_231" d="M1176 218H1350" stroke="#ECEBE6"/>
<path id="Vector_232" d="M1176 261.889H1350" stroke="#ECEBE6" stroke-dasharray="2 6"/>
<path id="Vector_233" d="M1176 305.778H1350" stroke="#ECEBE6"/>
<path id="Vector_234" d="M1176 349.667H1350" stroke="#ECEBE6" stroke-dasharray="2 6"/>
<path id="Vector_235" d="M1176 393.556H1350" stroke="#ECEBE6"/>
<path id="Vector_236" d="M1176 437.444H1350" stroke="#ECEBE6" stroke-dasharray="2 6"/>
<path id="Vector_237" d="M1176 481.333H1350" stroke="#ECEBE6"/>
<path id="Vector_238" d="M1176 525.222H1350" stroke="#ECEBE6" stroke-dasharray="2 6"/>
<path id="Vector_239" d="M1176 569.111H1350" stroke="#ECEBE6"/>
<path id="Vector_240" d="M1176 613H1350" stroke="#ECEBE6" stroke-dasharray="2 6"/>
<path id="Vector_241" d="M1176 656.889H1350" stroke="#ECEBE6"/>
<path id="Vector_242" d="M1176 700.778H1350" stroke="#ECEBE6" stroke-dasharray="2 6"/>
<path id="Vector_243" d="M1176 744.667H1350" stroke="#ECEBE6"/>
<path id="Vector_244" d="M1176 788.556H1350" stroke="#ECEBE6" stroke-dasharray="2 6"/>
<path id="Vector_245" d="M1176 832.444H1350" stroke="#ECEBE6"/>
<path id="Vector_246" d="M1176 876.333H1350" stroke="#ECEBE6" stroke-dasharray="2 6"/>
<path id="Vector_247" d="M1176 920.222H1350" stroke="#ECEBE6"/>
<path id="Vector_248" d="M1176 964.111H1350" stroke="#ECEBE6" stroke-dasharray="2 6"/>
<path id="Vector_249" d="M1176 1008H1350" stroke="#ECEBE6"/>
<path id="Vector_250" d="M1176 1051.89H1350" stroke="#ECEBE6" stroke-dasharray="2 6"/>
<path id="Vector_251" d="M1176 1095.78H1350" stroke="#ECEBE6"/>
<path id="Vector_252" d="M1176 1139.67H1350" stroke="#ECEBE6" stroke-dasharray="2 6"/>
<path id="Vector_253" d="M1176 1183.56H1350" stroke="#ECEBE6"/>
<path id="Vector_254" d="M1176 1227.44H1350" stroke="#ECEBE6" stroke-dasharray="2 6"/>
<path id="Vector_255" d="M1176 1271.33H1350" stroke="#ECEBE6"/>
<path id="Vector_256" d="M1176 1315.22H1350" stroke="#ECEBE6" stroke-dasharray="2 6"/>
<path id="Vector_257" d="M1176 1359.11H1350" stroke="#ECEBE6"/>
<path id="Vector_258" d="M1176 1403H1350" stroke="#ECEBE6" stroke-dasharray="2 6"/>
<path id="Vector_259" d="M1176 1446.89H1350" stroke="#ECEBE6"/>
<path id="Vector_260" d="M1176 1490.78H1350" stroke="#ECEBE6" stroke-dasharray="2 6"/>
<path id="Vector_261" d="M1176 1534.67H1350" stroke="#ECEBE6"/>
<path id="Vector_262" d="M1176 1578.56H1350" stroke="#ECEBE6" stroke-dasharray="2 6"/>
<path id="Vector_263" d="M1176 1622.44H1350" stroke="#ECEBE6"/>
<path id="Vector_264" d="M1176 1666.33H1350" stroke="#ECEBE6" stroke-dasharray="2 6"/>
<path id="Vector_265" d="M1176 1710.22H1350" stroke="#ECEBE6"/>
<path id="Vector_266" d="M1176 1754.11H1350" stroke="#ECEBE6" stroke-dasharray="2 6"/>
</g>
</g>
</g>
<g id="footer-rule">
<path id="Vector_267" d="M132 1812H1350" stroke="#DCD9D4"/>
</g>
<g id="hdr-nav">
<path id="hdr-nav-prev-bg" d="M586 86H568C563.582 86 560 89.5817 560 94V112C560 116.418 563.582 120 568 120H586C590.418 120 594 116.418 594 112V94C594 89.5817 590.418 86 586 86Z" stroke="#D6E0EE"/>
<text id="&#226;&#128;&#185;" fill="#41587C" style="white-space: pre" xml:space="preserve" font-family="Noto Sans" font-size="16" letter-spacing="0em"><tspan x="574.133" y="108.424">&#x2039;</tspan></text>
<path id="hdr-nav-next-bg" d="M630 86H612C607.582 86 604 89.5817 604 94V112C604 116.418 607.582 120 612 120H630C634.418 120 638 116.418 638 112V94C638 89.5817 634.418 86 630 86Z" stroke="#D6E0EE"/>
<text id="&#226;&#128;&#186;" fill="#41587C" style="white-space: pre" xml:space="preserve" font-family="Noto Sans" font-size="16" letter-spacing="0em"><tspan x="618.133" y="108.424">&#x203a;</tspan></text>
</g>
<g id="hdr-toggle">
<rect width="158" height="67" transform="translate(720 70)" fill="white"/>
<path id="hdr-toggle-schedule-bg" d="M878 103.5V78.8878C878 73.9792 875.144 70 871.621 70H726.379C722.856 70 720 73.9792 720 78.8878V103.5H878Z" fill="#41587C" stroke="#CFD5DD"/>
<path id="hdr-toggle-block-bg" d="M720 128.112C720 133.021 722.856 137 726.379 137H871.621C875.144 137 878 133.021 878 128.112V103.5H720V128.112Z" stroke="#CFD5DD"/>
<text id="hdr-toggle-schedule" fill="white" style="white-space: pre" xml:space="preserve" font-family="IBM Plex Mono" font-size="15" font-weight="bold" letter-spacing="0em"><tspan x="763.023" y="92.375">SCHEDULE</tspan></text>
<text id="hdr-toggle-block" fill="#41587C" style="white-space: pre" xml:space="preserve" font-family="IBM Plex Mono" font-size="15" font-weight="bold" letter-spacing="0em"><tspan x="776.515" y="125.875">BLOCK</tspan></text>
</g>
</g>
<g id="var-ink">
<g id="week-schedule-nums">
<text id="ws-day-1-num" fill="#23262D" style="white-space: pre" xml:space="preserve" font-family="IBM Plex Mono" font-size="19" letter-spacing="0em"><tspan x="142" y="206.625">16</tspan></text>
<text id="ws-day-2-num" fill="#23262D" style="white-space: pre" xml:space="preserve" font-family="IBM Plex Mono" font-size="19" letter-spacing="0em"><tspan x="316" y="206.625">17</tspan></text>
<text id="ws-day-3-num" fill="#23262D" style="white-space: pre" xml:space="preserve" font-family="IBM Plex Mono" font-size="19" letter-spacing="0em"><tspan x="490" y="206.625">18</tspan></text>
<text id="ws-day-4-num" fill="#23262D" style="white-space: pre" xml:space="preserve" font-family="IBM Plex Mono" font-size="19" letter-spacing="0em"><tspan x="664" y="206.625">19</tspan></text>
<text id="ws-day-5-num" fill="#23262D" style="white-space: pre" xml:space="preserve" font-family="IBM Plex Mono" font-size="19" letter-spacing="0em"><tspan x="838" y="206.625">20</tspan></text>
<text id="ws-day-6-num" fill="#23262D" style="white-space: pre" xml:space="preserve" font-family="IBM Plex Mono" font-size="19" letter-spacing="0em"><tspan x="1012" y="206.625">21</tspan></text>
<text id="ws-day-7-num" fill="#9E5563" style="white-space: pre" xml:space="preserve" font-family="IBM Plex Mono" font-size="19" letter-spacing="0em"><tspan x="1186" y="206.625">22</tspan></text>
</g>
<text id="footer-left" fill="#9AA0A8" style="white-space: pre" xml:space="preserve" font-family="IBM Plex Mono" font-size="13" letter-spacing="0em"><tspan x="132" y="1836.38">WEEK 8 &#xb7; 05:00&#x2013;22:00</tspan></text>
<text id="footer-right" fill="#9AA0A8" style="white-space: pre" xml:space="preserve" font-family="IBM Plex Mono" font-size="13" letter-spacing="0em"><tspan x="1256.46" y="1836.38">&#x21b3; week block</tspan></text>
<g id="hdr-meta">
<path id="hdr-datebox-frame" d="M497.618 54H147.382C138.887 54 132 59.8203 132 67V139C132 146.18 138.887 152 147.382 152H497.618C506.113 152 513 146.18 513 139V67C513 59.8203 506.113 54 497.618 54Z" stroke="#CFD5DD"/>
<path id="Vector_268" d="M225.957 55V151" stroke="#E2DFDA"/>
<path id="Vector_269" d="M433 54V152" stroke="#E2DFDA"/>
<text id="hdr-big-label" fill="#8F9298" style="white-space: pre" xml:space="preserve" font-family="IBM Plex Mono" font-size="10" letter-spacing="0em"><tspan x="165.758" y="125.25">MONTH</tspan></text>
<path id="Vector_270" d="M433 103H513" stroke="#E2DFDA"/>
<text id="hdr-meta-top" fill="#6B7686" style="white-space: pre" xml:space="preserve" font-family="IBM Plex Mono" font-size="11" letter-spacing="0em"><tspan x="458.782" y="85.125">YEAR</tspan></text>
<text id="hdr-big" fill="#23262D" style="white-space: pre" xml:space="preserve" font-family="IBM Plex Mono" font-size="52" letter-spacing="0em"><tspan x="166.342" y="108.5">2</tspan></text>
<text id="hdr-month-name" fill="#41587C" style="white-space: pre" xml:space="preserve" font-family="IBM Plex Mono" font-size="23" font-weight="bold" letter-spacing="0em"><tspan x="269.111" y="100.625">February</tspan></text>
<text id="hdr-month-jp" fill="#9AA0A8" style="white-space: pre" xml:space="preserve" font-family="Noto Sans" font-size="16" letter-spacing="0em"><tspan x="311.386" y="123.208">2&#x6708;</tspan></text>
<text id="hdr-meta-bottom" fill="#41587C" style="white-space: pre" xml:space="preserve" font-family="IBM Plex Mono" font-size="15" letter-spacing="0em"><tspan x="452.31" y="133.625">2026</tspan></text>
</g>
<g id="rail">
<g id="rail-months-bg">
<rect id="rail-month-01-bg" x="25" y="148" width="66" height="108.417" fill="#D9D9D9"/>
<rect id="rail-month-02-bg" x="25" y="256.417" width="66" height="108.417" fill="#8F9298"/>
<rect id="rail-month-03-bg" x="25" y="364.833" width="66" height="108.417" fill="#D9D9D9"/>
<rect id="rail-month-04-bg" x="25" y="473.25" width="66" height="108.417" fill="#D9D9D9"/>
<rect id="rail-month-05-bg" x="25" y="581.667" width="66" height="108.417" fill="#D9D9D9"/>
<rect id="rail-month-06-bg" x="25" y="690.083" width="66" height="108.417" fill="#D9D9D9"/>
<rect id="rail-month-07-bg" x="25" y="798.5" width="66" height="108.417" fill="#D9D9D9"/>
<rect id="rail-month-08-bg" x="25" y="906.917" width="66" height="108.417" fill="#D9D9D9"/>
<rect id="rail-month-09-bg" x="25" y="1015.33" width="66" height="108.417" fill="#D9D9D9"/>
<rect id="rail-month-10-bg" x="25" y="1123.75" width="66" height="108.417" fill="#D9D9D9"/>
<rect id="rail-month-11-bg" x="25" y="1232.17" width="66" height="108.417" fill="#D9D9D9"/>
<rect id="rail-month-12-bg" x="25" y="1340.58" width="66" height="108.417" fill="#D9D9D9"/>
</g>
<g id="rail-months">
<text id="rail-month-01" transform="matrix(0 -1 1 0 25 256.417)" fill="#8F9298" style="white-space: pre" xml:space="preserve" font-family="IBM Plex Mono" font-size="16" letter-spacing="0em"><tspan x="39.8177" y="39">JAN</tspan></text>
<text id="rail-month-02" transform="matrix(0 -1 1 0 25 364.833)" fill="white" style="white-space: pre" xml:space="preserve" font-family="IBM Plex Mono" font-size="16" letter-spacing="0em"><tspan x="39.8177" y="39">FEB</tspan></text>
<text id="rail-month-03" transform="matrix(0 -1 1 0 25 473.25)" fill="#8F9298" style="white-space: pre" xml:space="preserve" font-family="IBM Plex Mono" font-size="16" letter-spacing="0em"><tspan x="39.8177" y="39">MAR</tspan></text>
<text id="rail-month-04" transform="matrix(0 -1 1 0 25 581.667)" fill="#8F9298" style="white-space: pre" xml:space="preserve" font-family="IBM Plex Mono" font-size="16" letter-spacing="0em"><tspan x="39.8177" y="39">APR</tspan></text>
<text id="rail-month-05" transform="matrix(0 -1 1 0 25 690.083)" fill="#8F9298" style="white-space: pre" xml:space="preserve" font-family="IBM Plex Mono" font-size="16" letter-spacing="0em"><tspan x="39.8177" y="39">MAY</tspan></text>
<text id="rail-month-06" transform="matrix(0 -1 1 0 25 798.5)" fill="#8F9298" style="white-space: pre" xml:space="preserve" font-family="IBM Plex Mono" font-size="16" letter-spacing="0em"><tspan x="39.8177" y="39">JUN</tspan></text>
<text id="rail-month-07" transform="matrix(0 -1 1 0 25 906.917)" fill="#8F9298" style="white-space: pre" xml:space="preserve" font-family="IBM Plex Mono" font-size="16" letter-spacing="0em"><tspan x="39.8177" y="39">JUL</tspan></text>
<text id="rail-month-08" transform="matrix(0 -1 1 0 25 1015.33)" fill="#8F9298" style="white-space: pre" xml:space="preserve" font-family="IBM Plex Mono" font-size="16" letter-spacing="0em"><tspan x="39.8177" y="39">AUG</tspan></text>
<text id="rail-month-09" transform="matrix(0 -1 1 0 25 1123.75)" fill="#8F9298" style="white-space: pre" xml:space="preserve" font-family="IBM Plex Mono" font-size="16" letter-spacing="0em"><tspan x="39.8177" y="39">SEP</tspan></text>
<text id="rail-month-10" transform="matrix(0 -1 1 0 25 1232.17)" fill="#8F9298" style="white-space: pre" xml:space="preserve" font-family="IBM Plex Mono" font-size="16" letter-spacing="0em"><tspan x="39.8177" y="39">OCT</tspan></text>
<text id="rail-month-11" transform="matrix(0 -1 1 0 25 1340.58)" fill="#8F9298" style="white-space: pre" xml:space="preserve" font-family="IBM Plex Mono" font-size="16" letter-spacing="0em"><tspan x="39.8177" y="39">NOV</tspan></text>
<text id="rail-month-12" transform="matrix(0 -1 1 0 25 1449)" fill="#8F9298" style="white-space: pre" xml:space="preserve" font-family="IBM Plex Mono" font-size="16" letter-spacing="0em"><tspan x="39.8177" y="39">DEC</tspan></text>
</g>
<g id="rail-index-chip">
<g id="Vector_271">
<path d="M25 148L58 160.5V54H37.5C31 54 25 59.5 25 67V148Z" fill="#2C2C2C"/>
<path d="M91 148L58 160.5V54H78.5C85 54 91 59.5 91 67V148Z" fill="#2C2C2C"/>
</g>
<text id="rail-index-label" transform="matrix(0 -1 1 0 44.9048 127.388)" fill="white" style="white-space: pre" xml:space="preserve" font-family="Noto Sans" font-size="16" font-weight="bold" letter-spacing="0em"><tspan x="0.842468" y="18.7794">INDEX</tspan></text>
</g>
<path id="Vector_272" d="M25 1449H91" stroke="#E2DFDA"/>
<g id="rail-sections-bg">
<rect id="rail-section-4-bg" opacity="0.2" x="25" y="1740" width="66" height="97" fill="#D9D9D9"/>
<rect id="rail-section-3-bg" opacity="0.2" x="25" y="1643" width="66" height="97" fill="#D9D9D9"/>
<rect id="rail-section-2-bg" opacity="0.2" x="25" y="1546" width="66" height="97" fill="#D9D9D9"/>
<rect id="rail-section-1-bg" opacity="0.2" x="25" y="1449" width="66" height="97" fill="#D9D9D9"/>
</g>
<g id="rail-sections">
<text id="rail-section-1" transform="matrix(0 -1 1 0 25 1546)" fill="#8F9298" style="white-space: pre" xml:space="preserve" font-family="Noto Sans" font-size="12" font-weight="bold" letter-spacing="0em"><tspan x="32.6914" y="37.656">LISTS</tspan></text>
<text id="rail-section-2" transform="matrix(0 -1 1 0 25 1643)" fill="#8F9298" style="white-space: pre" xml:space="preserve" font-family="Noto Sans" font-size="12" font-weight="bold" letter-spacing="0em"><tspan x="20.0527" y="37.656">PROJECTS</tspan></text>
<text id="rail-section-3" transform="matrix(0 -1 1 0 25 1740)" fill="#8F9298" style="white-space: pre" xml:space="preserve" font-family="Noto Sans" font-size="12" font-weight="bold" letter-spacing="0em"><tspan x="17.791" y="37.656">MEETINGS</tspan></text>
<text id="rail-section-4" transform="matrix(0 -1 1 0 25 1837)" fill="#8F9298" style="white-space: pre" xml:space="preserve" font-family="Noto Sans" font-size="12" font-weight="bold" letter-spacing="0em"><tspan x="9.875" y="37.656">SCRATCHPAD</tspan></text>
</g>
</g>
</g>
</g>
<defs>
<clipPath id="clip0_0_1">
<rect width="1404" height="1872" fill="white"/>
</clipPath>
</defs>
</svg>
