<svg width="1404" height="1872" viewBox="0 0 1404 1872" fill="none" xmlns="http://www.w3.org/2000/svg">
<rect width="1404" height="1872" fill="#1E1E1E"/>
<g id="06-category" clip-path="url(#clip0_0_1)">
<path id="page-bg" d="M1404 0H0V1872H1404V0Z" fill="white"/>
<g id="background">
<path id="cat-grid-frame" d="M1346 178H136C133.791 178 132 179.791 132 182V1794C132 1796.21 133.791 1798 136 1798H1346C1348.21 1798 1350 1796.21 1350 1794V182C1350 179.791 1348.21 178 1346 178Z" stroke="#D7D4CF"/>
<g id="footer-rule">
<path id="Vector" d="M132 1812H1350" stroke="#DCD9D4"/>
</g>
<text id="footer-left" fill="#9AA0A8" style="white-space: pre" xml:space="preserve" font-family="IBM Plex Mono" font-size="13" letter-spacing="0em"><tspan x="132" y="1836.38">LISTS</tspan></text>
<text id="footer-right" fill="#9AA0A8" style="white-space: pre" xml:space="preserve" font-family="IBM Plex Mono" font-size="13" letter-spacing="0em"><tspan x="1295.44" y="1836.38">&#x21b3; index</tspan></text>
</g>
<g id="var-ink">
<g id="hdr-nav">
<path id="hdr-nav-prev-bg" d="M586 86H568C563.582 86 560 89.5817 560 94V112C560 116.418 563.582 120 568 120H586C590.418 120 594 116.418 594 112V94C594 89.5817 590.418 86 586 86Z" stroke="#D6E0EE"/>
<text id="&#226;&#128;&#185;" fill="#41587C" style="white-space: pre" xml:space="preserve" font-family="Noto Sans" font-size="16" letter-spacing="0em"><tspan x="574.133" y="108.424">&#x2039;</tspan></text>
<path id="hdr-nav-next-bg" d="M630 86H612C607.582 86 604 89.5817 604 94V112C604 116.418 607.582 120 612 120H630C634.418 120 638 116.418 638 112V94C638 89.5817 634.418 86 630 86Z" stroke="#D6E0EE"/>
<text id="&#226;&#128;&#186;" fill="#41587C" style="white-space: pre" xml:space="preserve" font-family="Noto Sans" font-size="16" letter-spacing="0em"><tspan x="618.133" y="108.424">&#x203a;</tspan></text>
</g>
<g id="hdr-meta">
<path id="hdr-datebox-frame" d="M497.618 49H147.382C138.887 49 132 54.8203 132 62V134C132 141.18 138.887 147 147.382 147H497.618C506.113 147 513 141.18 513 134V62C513 54.8203 506.113 49 497.618 49Z" stroke="#CFD5DD"/>
<path id="Vector_2" d="M225.957 50V146" stroke="#E2DFDA"/>
<path id="Vector_3" d="M433 49V147" stroke="#E2DFDA"/>
<text id="hdr-big-label" fill="#8F9298" style="white-space: pre" xml:space="preserve" font-family="IBM Plex Mono" font-size="10" letter-spacing="0em"><tspan x="159.514" y="128.25">Section</tspan></text>
<path id="Vector_4" d="M433 98H513" stroke="#E2DFDA"/>
<text id="hdr-meta-top" fill="#6B7686" style="white-space: pre" xml:space="preserve" font-family="IBM Plex Mono" font-size="11" letter-spacing="0em"><tspan x="458.782" y="80.125">YEAR</tspan></text>
<text id="hdr-big" fill="#23262D" style="white-space: pre" xml:space="preserve" font-family="IBM Plex Mono" font-size="52" letter-spacing="0em"><tspan x="165.342" y="109.5">L</tspan></text>
<text id="hdr-month-name" fill="#41587C" style="white-space: pre" xml:space="preserve" font-family="IBM Plex Mono" font-size="24" font-weight="bold" letter-spacing="0em"><tspan x="286.693" y="104.5">Lists</tspan></text>
<text id="hdr-meta-bottom" fill="#41587C" style="white-space: pre" xml:space="preserve" font-family="IBM Plex Mono" font-size="15" letter-spacing="0em"><tspan x="452.31" y="128.625">2026</tspan></text>
</g>
<g id="rail">
<g id="rail-months-bg">
<rect id="rail-month-01-bg" x="25" y="148" width="66" height="108.417" fill="#D9D9D9"/>
<rect id="rail-month-02-bg" x="25" y="256.417" width="66" height="108.417" fill="#8F9298"/>
<rect id="rail-month-03-bg" x="25" y="364.833" width="66" height="108.417" fill="#D9D9D9"/>
<rect id="rail-month-04-bg" x="25" y="473.25" width="66" height="108.417" fill="#D9D9D9"/>
<rect id="rail-month-05-bg" x="25" y="581.667" width="66" height="108.417" fill="#D9D9D9"/>
<rect id="rail-month-06-bg" x="25" y="690.083" width="66" height="108.417" fill="#D9D9D9"/>
<rect id="rail-month-07-bg" x="25" y="798.5" width="66" height="108.417" fill="#D9D9D9"/>
<rect id="rail-month-08-bg" x="25" y="906.917" width="66" height="108.417" fill="#D9D9D9"/>
<rect id="rail-month-09-bg" x="25" y="1015.33" width="66" height="108.417" fill="#D9D9D9"/>
<rect id="rail-month-10-bg" x="25" y="1123.75" width="66" height="108.417" fill="#D9D9D9"/>
<rect id="rail-month-11-bg" x="25" y="1232.17" width="66" height="108.417" fill="#D9D9D9"/>
<rect id="rail-month-12-bg" x="25" y="1340.58" width="66" height="108.417" fill="#D9D9D9"/>
</g>
<g id="rail-months">
<text id="rail-month-01" transform="matrix(0 -1 1 0 25 256.417)" fill="#8F9298" style="white-space: pre" xml:space="preserve" font-family="IBM Plex Mono" font-size="16" letter-spacing="0em"><tspan x="39.8177" y="39">JAN</tspan></text>
<text id="rail-month-02" transform="matrix(0 -1 1 0 25 364.833)" fill="white" style="white-space: pre" xml:space="preserve" font-family="IBM Plex Mono" font-size="16" letter-spacing="0em"><tspan x="39.8177" y="39">FEB</tspan></text>
<text id="rail-month-03" transform="matrix(0 -1 1 0 25 473.25)" fill="#8F9298" style="white-space: pre" xml:space="preserve" font-family="IBM Plex Mono" font-size="16" letter-spacing="0em"><tspan x="39.8177" y="39">MAR</tspan></text>
<text id="rail-month-04" transform="matrix(0 -1 1 0 25 581.667)" fill="#8F9298" style="white-space: pre" xml:space="preserve" font-family="IBM Plex Mono" font-size="16" letter-spacing="0em"><tspan x="39.8177" y="39">APR</tspan></text>
<text id="rail-month-05" transform="matrix(0 -1 1 0 25 690.083)" fill="#8F9298" style="white-space: pre" xml:space="preserve" font-family="IBM Plex Mono" font-size="16" letter-spacing="0em"><tspan x="39.8177" y="39">MAY</tspan></text>
<text id="rail-month-06" transform="matrix(0 -1 1 0 25 798.5)" fill="#8F9298" style="white-space: pre" xml:space="preserve" font-family="IBM Plex Mono" font-size="16" letter-spacing="0em"><tspan x="39.8177" y="39">JUN</tspan></text>
<text id="rail-month-07" transform="matrix(0 -1 1 0 25 906.917)" fill="#8F9298" style="white-space: pre" xml:space="preserve" font-family="IBM Plex Mono" font-size="16" letter-spacing="0em"><tspan x="39.8177" y="39">JUL</tspan></text>
<text id="rail-month-08" transform="matrix(0 -1 1 0 25 1015.33)" fill="#8F9298" style="white-space: pre" xml:space="preserve" font-family="IBM Plex Mono" font-size="16" letter-spacing="0em"><tspan x="39.8177" y="39">AUG</tspan></text>
<text id="rail-month-09" transform="matrix(0 -1 1 0 25 1123.75)" fill="#8F9298" style="white-space: pre" xml:space="preserve" font-family="IBM Plex Mono" font-size="16" letter-spacing="0em"><tspan x="39.8177" y="39">SEP</tspan></text>
<text id="rail-month-10" transform="matrix(0 -1 1 0 25 1232.17)" fill="#8F9298" style="white-space: pre" xml:space="preserve" font-family="IBM Plex Mono" font-size="16" letter-spacing="0em"><tspan x="39.8177" y="39">OCT</tspan></text>
<text id="rail-month-11" transform="matrix(0 -1 1 0 25 1340.58)" fill="#8F9298" style="white-space: pre" xml:space="preserve" font-family="IBM Plex Mono" font-size="16" letter-spacing="0em"><tspan x="39.8177" y="39">NOV</tspan></text>
<text id="rail-month-12" transform="matrix(0 -1 1 0 25 1449)" fill="#8F9298" style="white-space: pre" xml:space="preserve" font-family="IBM Plex Mono" font-size="16" letter-spacing="0em"><tspan x="39.8177" y="39">DEC</tspan></text>
</g>
<g id="rail-index-chip">
<g id="Vector_5">
<path d="M25 148L58 160.5V54H37.5C31 54 25 59.5 25 67V148Z" fill="#2C2C2C"/>
<path d="M91 148L58 160.5V54H78.5C85 54 91 59.5 91 67V148Z" fill="#2C2C2C"/>
</g>
<text id="rail-index-label" transform="matrix(0 -1 1 0 44.9048 127.388)" fill="white" style="white-space: pre" xml:space="preserve" font-family="Noto Sans" font-size="16" font-weight="bold" letter-spacing="0em"><tspan x="0.842468" y="18.7794">INDEX</tspan></text>
</g>
<path id="Vector_6" d="M25 1449H91" stroke="#E2DFDA"/>
<g id="rail-sections-bg">
<rect id="rail-section-4-bg" opacity="0.2" x="25" y="1740" width="66" height="97" fill="#D9D9D9"/>
<rect id="rail-section-3-bg" opacity="0.2" x="25" y="1643" width="66" height="97" fill="#D9D9D9"/>
<rect id="rail-section-2-bg" opacity="0.2" x="25" y="1546" width="66" height="97" fill="#D9D9D9"/>
<rect id="rail-section-1-bg" opacity="0.2" x="25" y="1449" width="66" height="97" fill="#D9D9D9"/>
</g>
<g id="rail-sections">
<text id="rail-section-1" transform="matrix(0 -1 1 0 25 1546)" fill="#8F9298" style="white-space: pre" xml:space="preserve" font-family="Noto Sans" font-size="12" font-weight="bold" letter-spacing="0em"><tspan x="32.6914" y="37.656">LISTS</tspan></text>
<text id="rail-section-2" transform="matrix(0 -1 1 0 25 1643)" fill="#8F9298" style="white-space: pre" xml:space="preserve" font-family="Noto Sans" font-size="12" font-weight="bold" letter-spacing="0em"><tspan x="20.0527" y="37.656">PROJECTS</tspan></text>
<text id="rail-section-3" transform="matrix(0 -1 1 0 25 1740)" fill="#8F9298" style="white-space: pre" xml:space="preserve" font-family="Noto Sans" font-size="12" font-weight="bold" letter-spacing="0em"><tspan x="17.791" y="37.656">MEETINGS</tspan></text>
<text id="rail-section-4" transform="matrix(0 -1 1 0 25 1837)" fill="#8F9298" style="white-space: pre" xml:space="preserve" font-family="Noto Sans" font-size="12" font-weight="bold" letter-spacing="0em"><tspan x="9.875" y="37.656">SCRATCHPAD</tspan></text>
</g>
</g>
</g>
</g>
<defs>
<clipPath id="clip0_0_1">
<rect width="1404" height="1872" fill="white"/>
</clipPath>
</defs>
</svg>
